<svg id="Layer_5" data-name="Layer 5" xmlns="http://www.w3.org/2000/svg" viewBox="0 0 562.1 73.78"><defs><style>.cls-1{fill:#d6d6d6;}.cls-2{fill:#ff3600;}.cls-3{fill:#646464;}</style></defs><title>experience</title><rect class="cls-1" x="36.89" width="490.1" height="73.78"/><circle class="cls-1" cx="525.21" cy="36.89" r="36.89"/><circle class="cls-1" cx="36.89" cy="36.89" r="36.89"/><rect class="cls-1" x="36.89" width="490.1" height="73.78"/><circle class="cls-1" cx="36.89" cy="36.89" r="36.89"/><rect class="cls-2" x="36.89" width="488.32" height="73.78"/><circle class="cls-2" cx="525.21" cy="36.89" r="36.89"/><circle class="cls-2" cx="36.89" cy="36.89" r="36.89"/><path class="cls-3" d="M257.53,879.11l-6.61,22.36h-3.81l6.61-22.15h-6.5V883h-3.59v-7.09h13.9Z" transform="translate(-216.4 -852.6)"/><path class="cls-3" d="M272.65,875.91h3.59v25.56h-3.59Zm1.85,12.24h8.17a3.76,3.76,0,0,0,2-.55,3.58,3.58,0,0,0,1.36-1.54,5.71,5.71,0,0,0,0-4.63,3.61,3.61,0,0,0-1.36-1.55,3.76,3.76,0,0,0-2-.56H274.5v-3.41h8.05a8.09,8.09,0,0,1,4,1,6.81,6.81,0,0,1,2.7,2.75,9.28,9.28,0,0,1,0,8.22,6.7,6.7,0,0,1-2.7,2.73,8.08,8.08,0,0,1-4,1H274.5Z" transform="translate(-216.4 -852.6)"/><path class="cls-3" d="M293.83,883.23h3.59v18.24h-3.59Zm8.84,3.44a4.29,4.29,0,0,0-1.67-.3,3.61,3.61,0,0,0-2.64.94,3.52,3.52,0,0,0-.94,2.61l-.37-3.51a6.66,6.66,0,0,1,2.18-2.54,5.09,5.09,0,0,1,2.95-.91,6.7,6.7,0,0,1,2.26.36,5.06,5.06,0,0,1,1.77,1.07l-2.34,3.16A3,3,0,0,0,302.67,886.67Z" transform="translate(-216.4 -852.6)"/><path class="cls-3" d="M311.78,900.8a6.13,6.13,0,0,1-2.57-2.71,9.45,9.45,0,0,1-.89-4.3v-3a9.29,9.29,0,0,1,.89-4.25,6.19,6.19,0,0,1,2.57-2.69,9.42,9.42,0,0,1,8.12,0,6.21,6.21,0,0,1,2.58,2.69,9.42,9.42,0,0,1,.88,4.25v3a9.45,9.45,0,0,1-.88,4.27,6.21,6.21,0,0,1-2.58,2.69,9.24,9.24,0,0,1-8.12,0Zm7-3.65a4.86,4.86,0,0,0,1-3.31v-3a4.79,4.79,0,0,0-1-3.29,4.23,4.23,0,0,0-5.82,0,4.84,4.84,0,0,0-1,3.29v3a4.91,4.91,0,0,0,1,3.31,4.18,4.18,0,0,0,5.82,0Z" transform="translate(-216.4 -852.6)"/><path class="cls-3" d="M326,905.48h2a.91.91,0,0,0,.77-.36,1.69,1.69,0,0,0,.27-1V883.23h3.59v20.83a5.17,5.17,0,0,1-1.12,3.56,4,4,0,0,1-3.15,1.27H326Zm3-29.57h3.65v3.59H329Z" transform="translate(-216.4 -852.6)"/><path class="cls-3" d="M343.05,901.74l-1.79-1a6.35,6.35,0,0,1-2.73-2.79,9.58,9.58,0,0,1-.95-4.44V891.5a10.81,10.81,0,0,1,.91-4.62,6.45,6.45,0,0,1,2.63-2.92,8.2,8.2,0,0,1,4.15-1,6.6,6.6,0,0,1,3.9,1.14,7.16,7.16,0,0,1,2.47,3.31,14.09,14.09,0,0,1,.85,5.18v1.2h-12.3v-2.88h8.89a6.09,6.09,0,0,0-1.15-3.47,3.22,3.22,0,0,0-2.66-1.24,3.9,3.9,0,0,0-3.16,1.33,5.76,5.76,0,0,0-1.11,3.78v2.32a4.74,4.74,0,0,0,1.19,3.48,4.55,4.55,0,0,0,3.39,1.22,5.76,5.76,0,0,0,2.17-.44,6.51,6.51,0,0,0,1.91-1.23L352,899a9.93,9.93,0,0,1-3,2,8.62,8.62,0,0,1-3.4.72Z" transform="translate(-216.4 -852.6)"/><path class="cls-3" d="M362.28,901.74l-1.76-.94a6.29,6.29,0,0,1-2.7-2.7,9.18,9.18,0,0,1-.93-4.29v-3a8.93,8.93,0,0,1,.93-4.23,6.26,6.26,0,0,1,2.7-2.69,9.12,9.12,0,0,1,4.26-.92,10.52,10.52,0,0,1,2.68.34,7.85,7.85,0,0,1,2.26,1,6.15,6.15,0,0,1,1.67,1.58l-2.59,2.32a5.18,5.18,0,0,0-1.81-1.35,5.08,5.08,0,0,0-2.16-.48,4.35,4.35,0,0,0-3.22,1.16,4.49,4.49,0,0,0-1.14,3.27v3a4.62,4.62,0,0,0,1.14,3.34,4.27,4.27,0,0,0,3.22,1.18,4.88,4.88,0,0,0,2.18-.51,5.19,5.19,0,0,0,1.79-1.45l2.59,2.5a6.47,6.47,0,0,1-1.69,1.56,8.08,8.08,0,0,1-2.26,1,10.42,10.42,0,0,1-2.66.34Z" transform="translate(-216.4 -852.6)"/><path class="cls-3" d="M373.94,883.23h8.22v3.23h-8.22Zm2.91,17.11a5.47,5.47,0,0,1-1-3.61V877.92h3.58v18.84a1.69,1.69,0,0,0,.27,1,.88.88,0,0,0,.77.36h1.72v3.41h-2.07A4,4,0,0,1,376.85,900.34Z" transform="translate(-216.4 -852.6)"/><path class="cls-3" d="M391.92,901.74l-1.42-.32a11.06,11.06,0,0,1-2.64-.95,10.38,10.38,0,0,1-2.27-1.58l2.13-2.62a12.12,12.12,0,0,0,2.93,1.69,8.14,8.14,0,0,0,2.89.56,6.17,6.17,0,0,0,3.19-.66,2.17,2.17,0,0,0,1.06-2,1.56,1.56,0,0,0-.58-1.32,3.35,3.35,0,0,0-1.44-.59c-.58-.09-1.38-.19-2.43-.27H393l-.29,0h-.29a14.05,14.05,0,0,1-3-.52,4.1,4.1,0,0,1-2-1.41,4.77,4.77,0,0,1-.82-3,6.1,6.1,0,0,1,.79-3.22,4.84,4.84,0,0,1,2.36-1.93,10.54,10.54,0,0,1,3.92-.64,13.35,13.35,0,0,1,2.72.27,11.38,11.38,0,0,1,2.46.78,11.51,11.51,0,0,1,2.27,1.31L399,887.94a11.58,11.58,0,0,0-2.7-1.32,8.29,8.29,0,0,0-2.59-.44,4.94,4.94,0,0,0-2.74.62,2.12,2.12,0,0,0-.92,1.87,1.27,1.27,0,0,0,.52,1.11,3,3,0,0,0,1.31.49c.53.09,1.28.16,2.25.22h.22l.24,0h.1l.11,0a15.29,15.29,0,0,1,3.26.51,4.41,4.41,0,0,1,2.26,1.53,5.17,5.17,0,0,1,.91,3.3,5.87,5.87,0,0,1-.84,3.26,5.07,5.07,0,0,1-2.54,1.94,11.84,11.84,0,0,1-4.26.66Z" transform="translate(-216.4 -852.6)"/></svg>