<svg id="Layer_9" data-name="Layer 9" xmlns="http://www.w3.org/2000/svg" viewBox="0 0 562.1 353.79"><defs><style>.cls-1{fill:#d6d6d6;}.cls-2{fill:#ff3600;}.cls-3{fill:#646464;}</style></defs><title>activity</title><rect class="cls-1" x="36.89" width="490.1" height="73.78"/><circle class="cls-1" cx="525.21" cy="36.89" r="36.89"/><circle class="cls-1" cx="36.89" cy="36.89" r="36.89"/><rect class="cls-1" x="36.89" width="490.1" height="73.78"/><circle class="cls-1" cx="36.89" cy="36.89" r="36.89"/><rect class="cls-2" x="36.89" width="31.19" height="73.78"/><circle class="cls-2" cx="68.08" cy="36.89" r="36.89"/><circle class="cls-2" cx="36.89" cy="36.89" r="36.89"/><rect class="cls-1" x="36.89" y="93.34" width="490.1" height="73.78"/><circle class="cls-1" cx="525.21" cy="130.23" r="36.89"/><circle class="cls-1" cx="36.89" cy="130.23" r="36.89"/><rect class="cls-1" x="36.89" y="93.34" width="490.1" height="73.78"/><circle class="cls-1" cx="36.89" cy="130.23" r="36.89"/><rect class="cls-2" x="36.89" y="93.34" width="100.51" height="73.78"/><circle class="cls-2" cx="137.41" cy="130.23" r="36.89"/><circle class="cls-2" cx="36.89" cy="130.23" r="36.89"/><rect class="cls-1" x="36.89" y="186.67" width="490.1" height="73.78"/><circle class="cls-1" cx="525.21" cy="223.56" r="36.89"/><circle class="cls-1" cx="36.89" cy="223.56" r="36.89"/><rect class="cls-1" x="36.89" y="186.67" width="490.1" height="73.78"/><circle class="cls-1" cx="36.89" cy="223.56" r="36.89"/><rect class="cls-2" x="36.89" y="186.67" width="137.41" height="73.78"/><circle class="cls-2" cx="174.3" cy="223.56" r="36.89"/><circle class="cls-2" cx="36.89" cy="223.56" r="36.89"/><rect class="cls-1" x="36.89" y="280.01" width="490.1" height="73.78"/><circle class="cls-1" cx="525.21" cy="316.9" r="36.89"/><circle class="cls-1" cx="36.89" cy="316.9" r="36.89"/><rect class="cls-1" x="36.89" y="280.01" width="490.1" height="73.78"/><circle class="cls-1" cx="36.89" cy="316.9" r="36.89"/><rect class="cls-2" x="36.89" y="280.01" width="488.32" height="73.78"/><circle class="cls-2" cx="525.21" cy="316.9" r="36.89"/><circle class="cls-2" cx="36.89" cy="316.9" r="36.89"/><path class="cls-3" d="M1227.83,260.74h-3.59V239.08l-3.64,2.24v-3.71l3.64-2.43h3.59Z" transform="translate(-1187.83 -213.2)"/><path class="cls-3" d="M1236.37,260.1a5.78,5.78,0,0,1-2.43-2.64,9.45,9.45,0,0,1-.84-4.17v0a14.47,14.47,0,0,1,.33-3,17.92,17.92,0,0,1,1-3.07c.07-.18.15-.35.23-.52s.16-.34.25-.5l5.55-11h3.87l-6.52,12.75v-.64a3.06,3.06,0,0,1,1.29-1.28,4.08,4.08,0,0,1,2-.46,6.27,6.27,0,0,1,3.42.9,5.66,5.66,0,0,1,2.16,2.61,10.43,10.43,0,0,1,.74,4.12v0a9.71,9.71,0,0,1-.84,4.22,5.92,5.92,0,0,1-2.44,2.67,8.66,8.66,0,0,1-7.71,0Zm6.48-3.6a4.43,4.43,0,0,0,.92-3v0a5,5,0,0,0-1-3.31A3.37,3.37,0,0,0,1240,249a2.92,2.92,0,0,0-2.48,1.18,5.49,5.49,0,0,0-.87,3.32v0a4.33,4.33,0,0,0,.92,3,3.78,3.78,0,0,0,5.24,0Z" transform="translate(-1187.83 -213.2)"/><path class="cls-3" d="M1262.3,235.18h3.58v25.56h-3.58Zm1.84,12.24h8.18a3.84,3.84,0,0,0,2-.55,3.62,3.62,0,0,0,1.36-1.55,5.22,5.22,0,0,0,.48-2.3,5.31,5.31,0,0,0-.48-2.32,3.62,3.62,0,0,0-1.36-1.55,3.76,3.76,0,0,0-2-.56h-8.18v-3.41h8a8.1,8.1,0,0,1,4,1,6.75,6.75,0,0,1,2.7,2.75,9.28,9.28,0,0,1,0,8.22,6.82,6.82,0,0,1-2.7,2.73,8.2,8.2,0,0,1-4,1h-8Z" transform="translate(-1187.83 -213.2)"/><path class="cls-3" d="M1283.48,242.49h3.58v18.25h-3.58Zm8.84,3.45a4.33,4.33,0,0,0-1.67-.3,3.28,3.28,0,0,0-3.59,3.55l-.36-3.51a6.57,6.57,0,0,1,2.18-2.54,5.09,5.09,0,0,1,2.95-.91,6.74,6.74,0,0,1,2.26.36,5.15,5.15,0,0,1,1.76,1.06l-2.33,3.17A3,3,0,0,0,1292.32,245.94Z" transform="translate(-1187.83 -213.2)"/><path class="cls-3" d="M1301.43,260.07a6.1,6.1,0,0,1-2.58-2.71,9.61,9.61,0,0,1-.89-4.3v-3a9.42,9.42,0,0,1,.89-4.25,6.16,6.16,0,0,1,2.58-2.69,9.42,9.42,0,0,1,8.12,0,6.19,6.19,0,0,1,2.57,2.69,9.42,9.42,0,0,1,.89,4.25v3a9.38,9.38,0,0,1-.89,4.26,6.16,6.16,0,0,1-2.57,2.7,9.33,9.33,0,0,1-8.12,0Zm7-3.65a4.91,4.91,0,0,0,1-3.31v-3a4.82,4.82,0,0,0-1-3.29,4.23,4.23,0,0,0-5.82,0,4.77,4.77,0,0,0-1,3.29v3a4.86,4.86,0,0,0,1,3.31,4.2,4.2,0,0,0,5.82,0Z" transform="translate(-1187.83 -213.2)"/><path class="cls-3" d="M1315.65,264.75h2a.92.92,0,0,0,.77-.36,1.71,1.71,0,0,0,.27-1V242.49h3.58v20.83a5.23,5.23,0,0,1-1.11,3.57,4,4,0,0,1-3.16,1.27h-2.35Zm3-29.57h3.66v3.59h-3.66Z" transform="translate(-1187.83 -213.2)"/><path class="cls-3" d="M1332.7,261l-1.8-.95a6.38,6.38,0,0,1-2.73-2.78,9.64,9.64,0,0,1-.94-4.44v-2.06a10.66,10.66,0,0,1,.91-4.62,6.49,6.49,0,0,1,2.62-2.92,8.1,8.1,0,0,1,4.15-1,6.56,6.56,0,0,1,3.9,1.14,7.13,7.13,0,0,1,2.48,3.31,14.3,14.3,0,0,1,.85,5.18v1.2h-12.31v-2.88h8.9a6.23,6.23,0,0,0-1.15-3.48,3.27,3.27,0,0,0-2.67-1.24,3.87,3.87,0,0,0-3.15,1.34,5.7,5.7,0,0,0-1.12,3.78v2.32a4.74,4.74,0,0,0,1.2,3.48,4.52,4.52,0,0,0,3.39,1.21,5.49,5.49,0,0,0,2.16-.44,6.18,6.18,0,0,0,1.92-1.23l2.35,2.36a9.7,9.7,0,0,1-3,2,8.52,8.52,0,0,1-3.39.71Z" transform="translate(-1187.83 -213.2)"/><path class="cls-3" d="M1351.93,261l-1.77-.93a6.29,6.29,0,0,1-2.7-2.7,9.18,9.18,0,0,1-.93-4.29v-3a9,9,0,0,1,.93-4.24,6.29,6.29,0,0,1,2.7-2.68,9.18,9.18,0,0,1,4.26-.92,10.17,10.17,0,0,1,2.69.34,7.79,7.79,0,0,1,2.25,1,6,6,0,0,1,1.67,1.58l-2.58,2.32a5.27,5.27,0,0,0-1.81-1.35,5.08,5.08,0,0,0-2.16-.48,4.32,4.32,0,0,0-3.22,1.16,4.46,4.46,0,0,0-1.14,3.27v3a4.66,4.66,0,0,0,1.13,3.34,4.29,4.29,0,0,0,3.23,1.17,4.91,4.91,0,0,0,2.18-.51,5.28,5.28,0,0,0,1.79-1.44l2.58,2.5a6.23,6.23,0,0,1-1.68,1.55,7.82,7.82,0,0,1-2.26,1,10.5,10.5,0,0,1-2.67.33Z" transform="translate(-1187.83 -213.2)"/><path class="cls-3" d="M1363.58,242.49h8.23v3.24h-8.23Zm2.91,17.12a5.54,5.54,0,0,1-1-3.62v-18.8h3.59V256a1.78,1.78,0,0,0,.26,1,.92.92,0,0,0,.78.36h1.72v3.41h-2.08A4,4,0,0,1,1366.49,259.61Z" transform="translate(-1187.83 -213.2)"/><path class="cls-3" d="M1381.56,261l-1.41-.31a11.13,11.13,0,0,1-2.65-.95,10.32,10.32,0,0,1-2.26-1.58l2.12-2.62a12,12,0,0,0,2.94,1.68,7.85,7.85,0,0,0,2.88.57,6.15,6.15,0,0,0,3.19-.66,2.18,2.18,0,0,0,1.07-2,1.57,1.57,0,0,0-.58-1.32,3.34,3.34,0,0,0-1.45-.59c-.57-.1-1.38-.19-2.42-.27h-.3l-.3,0h-.28a14.82,14.82,0,0,1-3-.52,4,4,0,0,1-2-1.42,4.67,4.67,0,0,1-.82-3,6,6,0,0,1,.79-3.21,4.82,4.82,0,0,1,2.35-1.93,10.37,10.37,0,0,1,3.92-.64,14,14,0,0,1,2.72.26,12.07,12.07,0,0,1,2.47.79,11.8,11.8,0,0,1,2.27,1.31l-2.16,2.62a12,12,0,0,0-2.7-1.32,8.07,8.07,0,0,0-2.6-.44,5,5,0,0,0-2.74.62,2.11,2.11,0,0,0-.91,1.87,1.26,1.26,0,0,0,.52,1.11,2.92,2.92,0,0,0,1.31.49,20.16,20.16,0,0,0,2.25.21.78.78,0,0,0,.22,0l.23,0h.11a.18.18,0,0,1,.1,0,15.39,15.39,0,0,1,3.27.51,4.31,4.31,0,0,1,2.25,1.53,5.17,5.17,0,0,1,.92,3.3,5.79,5.79,0,0,1-.85,3.26,5,5,0,0,1-2.53,1.94,12,12,0,0,1-4.27.65Z" transform="translate(-1187.83 -213.2)"/><path class="cls-3" d="M1221.27,348.94l8.91-11.88a8.88,8.88,0,0,0,1.21-2.12,5.8,5.8,0,0,0,.43-2.05v0a3.12,3.12,0,0,0-.9-2.38,3.6,3.6,0,0,0-2.55-.84,3.53,3.53,0,0,0-2.53.92,4.24,4.24,0,0,0-1.18,2.61v0H1221v0a9.57,9.57,0,0,1,1.3-3.75,6.5,6.5,0,0,1,2.52-2.37,7.46,7.46,0,0,1,3.57-.82,8.92,8.92,0,0,1,3.9.78,5.45,5.45,0,0,1,2.46,2.28,7.23,7.23,0,0,1,.84,3.6v0a7.82,7.82,0,0,1-.56,2.83,12.47,12.47,0,0,1-1.56,2.85l-7.4,10.05h9.66v3.41h-14.41Z" transform="translate(-1187.83 -213.2)"/><path class="cls-3" d="M1244.72,352.32l-1.64-.79a6.39,6.39,0,0,1-2.62-2.26,8.17,8.17,0,0,1-1.26-3.58h3.66a3.8,3.8,0,0,0,.68,1.79,3.21,3.21,0,0,0,1.36,1,5.12,5.12,0,0,0,2,.34,3.81,3.81,0,0,0,2.76-.95,3.52,3.52,0,0,0,1-2.67v-.77a4.33,4.33,0,0,0-.93-3,3.38,3.38,0,0,0-2.64-1h-1.81v-3.41H1247a3,3,0,0,0,2.32-.9,3.6,3.6,0,0,0,.83-2.53v-.79a3.07,3.07,0,0,0-.87-2.34,3.46,3.46,0,0,0-2.47-.82,3.76,3.76,0,0,0-1.64.34,3.14,3.14,0,0,0-1.22,1.05,4.87,4.87,0,0,0-.73,1.79h-3.64a9.41,9.41,0,0,1,1.33-3.59,6.46,6.46,0,0,1,2.47-2.27,7.41,7.41,0,0,1,3.43-.77A7.08,7.08,0,0,1,1252,328a6.48,6.48,0,0,1,1.81,4.9v.43a5.48,5.48,0,0,1-1,3.34,5.83,5.83,0,0,1-2.93,2.07,5.2,5.2,0,0,1,3.24,2.06,6.77,6.77,0,0,1,1.15,4.08v.42a7.77,7.77,0,0,1-.86,3.81,5.66,5.66,0,0,1-2.5,2.41,8.78,8.78,0,0,1-4,.83Z" transform="translate(-1187.83 -213.2)"/><path class="cls-3" d="M1269.49,326.49h3.58v25.56h-3.58Zm1.84,12.24h8.18a3.7,3.7,0,0,0,2-.55,3.6,3.6,0,0,0,1.37-1.54,5.82,5.82,0,0,0,0-4.63,3.66,3.66,0,0,0-3.4-2.11h-8.18v-3.41h8.05a8.1,8.1,0,0,1,4,1,6.81,6.81,0,0,1,2.7,2.75,9.37,9.37,0,0,1,0,8.22,6.7,6.7,0,0,1-2.7,2.73,8.09,8.09,0,0,1-4,1h-8.05Z" transform="translate(-1187.83 -213.2)"/><path class="cls-3" d="M1290.67,333.81h3.58v18.24h-3.58Zm8.84,3.44a4.33,4.33,0,0,0-1.67-.3,3.58,3.58,0,0,0-2.64.94,3.53,3.53,0,0,0-1,2.61l-.37-3.51a6.74,6.74,0,0,1,2.18-2.54,5.15,5.15,0,0,1,3-.91,6.74,6.74,0,0,1,2.26.36A5,5,0,0,1,1303,335l-2.33,3.16A3,3,0,0,0,1299.51,337.25Z" transform="translate(-1187.83 -213.2)"/><path class="cls-3" d="M1308.62,351.38a6.1,6.1,0,0,1-2.58-2.71,9.58,9.58,0,0,1-.89-4.3v-3a9.42,9.42,0,0,1,.89-4.25,6.08,6.08,0,0,1,2.58-2.68,9.33,9.33,0,0,1,8.12,0,6.11,6.11,0,0,1,2.57,2.68,9.42,9.42,0,0,1,.89,4.25v3a9.45,9.45,0,0,1-.89,4.27,6.19,6.19,0,0,1-2.57,2.69,9.24,9.24,0,0,1-8.12,0Zm7-3.65a4.91,4.91,0,0,0,1-3.31v-3a4.84,4.84,0,0,0-1-3.29,4.23,4.23,0,0,0-5.82,0,4.79,4.79,0,0,0-1,3.29v3a4.86,4.86,0,0,0,1,3.31,4.18,4.18,0,0,0,5.82,0Z" transform="translate(-1187.83 -213.2)"/><path class="cls-3" d="M1322.84,356.06h2a.92.92,0,0,0,.77-.36,1.69,1.69,0,0,0,.27-1V333.81h3.58v20.83a5.22,5.22,0,0,1-1.11,3.56,4,4,0,0,1-3.16,1.27h-2.35Zm3-29.57h3.66v3.59h-3.66Z" transform="translate(-1187.83 -213.2)"/><path class="cls-3" d="M1339.89,352.32l-1.8-.95a6.4,6.4,0,0,1-2.73-2.79,9.58,9.58,0,0,1-.94-4.44v-2.05a10.68,10.68,0,0,1,.91-4.63,6.48,6.48,0,0,1,2.62-2.92,8.2,8.2,0,0,1,4.15-1,6.5,6.5,0,0,1,3.9,1.15,7,7,0,0,1,2.47,3.3,14.1,14.1,0,0,1,.86,5.19v1.19H1337v-2.88h8.9a6.16,6.16,0,0,0-1.15-3.47,3.25,3.25,0,0,0-2.67-1.24,3.86,3.86,0,0,0-3.15,1.33,5.7,5.7,0,0,0-1.12,3.78v2.32a4.74,4.74,0,0,0,1.2,3.48,4.52,4.52,0,0,0,3.39,1.22,5.71,5.71,0,0,0,2.16-.44,6.7,6.7,0,0,0,1.92-1.23l2.35,2.35a9.7,9.7,0,0,1-3,2,8.57,8.57,0,0,1-3.39.72Z" transform="translate(-1187.83 -213.2)"/><path class="cls-3" d="M1359.12,352.32l-1.77-.94a6.29,6.29,0,0,1-2.7-2.7,9.18,9.18,0,0,1-.93-4.29v-3a8.93,8.93,0,0,1,.93-4.23,6.19,6.19,0,0,1,2.7-2.68,9.05,9.05,0,0,1,4.26-.93,10,10,0,0,1,2.68.35,7.57,7.57,0,0,1,2.26,1,6,6,0,0,1,1.67,1.58l-2.58,2.32a5.27,5.27,0,0,0-1.81-1.35,5.08,5.08,0,0,0-2.16-.48,4.32,4.32,0,0,0-3.22,1.16,4.49,4.49,0,0,0-1.14,3.27v3a4.66,4.66,0,0,0,1.13,3.34,4.3,4.3,0,0,0,3.23,1.18,4.91,4.91,0,0,0,2.18-.51,5.29,5.29,0,0,0,1.79-1.45l2.58,2.5a6.43,6.43,0,0,1-1.68,1.56,8.08,8.08,0,0,1-2.26,1,10.5,10.5,0,0,1-2.67.34Z" transform="translate(-1187.83 -213.2)"/><path class="cls-3" d="M1370.77,333.81H1379V337h-8.23Zm2.91,17.11a5.53,5.53,0,0,1-1-3.61V328.5h3.59v18.84a1.76,1.76,0,0,0,.26,1,.92.92,0,0,0,.78.36H1379v3.41h-2.08A4,4,0,0,1,1373.68,350.92Z" transform="translate(-1187.83 -213.2)"/><path class="cls-3" d="M1388.75,352.32l-1.41-.32a11.13,11.13,0,0,1-2.65-.95,10.32,10.32,0,0,1-2.26-1.58l2.12-2.62a12.37,12.37,0,0,0,2.94,1.69,8,8,0,0,0,2.88.56,6.15,6.15,0,0,0,3.19-.66,2.18,2.18,0,0,0,1.07-2,1.57,1.57,0,0,0-.59-1.32,3.13,3.13,0,0,0-1.44-.58c-.57-.1-1.38-.2-2.42-.28h-.3l-.3,0h-.28a14.15,14.15,0,0,1-3-.52,4,4,0,0,1-2-1.41,4.71,4.71,0,0,1-.82-3,6,6,0,0,1,.79-3.22,4.82,4.82,0,0,1,2.35-1.93,10.57,10.57,0,0,1,3.92-.64,13.28,13.28,0,0,1,2.72.27,11.64,11.64,0,0,1,2.47.78,12.11,12.11,0,0,1,2.27,1.31l-2.16,2.62a12,12,0,0,0-2.7-1.32,8.35,8.35,0,0,0-2.6-.44,5,5,0,0,0-2.74.62,2.12,2.12,0,0,0-.91,1.88,1.24,1.24,0,0,0,.52,1.1,2.92,2.92,0,0,0,1.31.49,22.32,22.32,0,0,0,2.25.22h.22l.23,0h.11l.1,0a15.39,15.39,0,0,1,3.27.51,4.43,4.43,0,0,1,2.25,1.53,5.17,5.17,0,0,1,.92,3.3,5.79,5.79,0,0,1-.85,3.26,5.1,5.1,0,0,1-2.54,1.95,12.08,12.08,0,0,1-4.26.65Z" transform="translate(-1187.83 -213.2)"/><path class="cls-3" d="M1226.12,443.69l-1.63-.78a6.44,6.44,0,0,1-2.63-2.27,8.25,8.25,0,0,1-1.26-3.58h3.66a3.84,3.84,0,0,0,.68,1.8,3.09,3.09,0,0,0,1.37,1,5.08,5.08,0,0,0,2,.35,3.84,3.84,0,0,0,2.76-.95,3.58,3.58,0,0,0,1-2.67v-.78a4.31,4.31,0,0,0-.93-3,3.34,3.34,0,0,0-2.64-1.05h-1.81v-3.41h1.81a3,3,0,0,0,2.32-.89,3.6,3.6,0,0,0,.83-2.53v-.79a3.07,3.07,0,0,0-.87-2.34,3.46,3.46,0,0,0-2.47-.83,3.91,3.91,0,0,0-1.64.34,3.15,3.15,0,0,0-1.22,1.06,4.82,4.82,0,0,0-.73,1.78H1221a9.36,9.36,0,0,1,1.33-3.58,6.46,6.46,0,0,1,2.47-2.27,7.31,7.31,0,0,1,3.43-.77,7.06,7.06,0,0,1,5.11,1.74,6.46,6.46,0,0,1,1.81,4.9v.42a5.52,5.52,0,0,1-1,3.34,5.89,5.89,0,0,1-2.94,2.08,5.21,5.21,0,0,1,3.25,2.05,6.88,6.88,0,0,1,1.15,4.08v.42a7.84,7.84,0,0,1-.87,3.82,5.71,5.71,0,0,1-2.5,2.41,8.77,8.77,0,0,1-4,.82Z" transform="translate(-1187.83 -213.2)"/><path class="cls-3" d="M1240.34,436.4l8.58-18.51h3.69l-8.37,18.3h12.54v3.32h-16.44Zm11-8h3.5v15.05h-3.5Z" transform="translate(-1187.83 -213.2)"/><path class="cls-3" d="M1271.37,417.87H1275v25.56h-3.58Zm1.84,12.23h8.18a3.84,3.84,0,0,0,2-.54,3.62,3.62,0,0,0,1.36-1.55,5.25,5.25,0,0,0,.48-2.3,5.31,5.31,0,0,0-.48-2.32,3.7,3.7,0,0,0-1.36-1.56,3.76,3.76,0,0,0-2-.55h-8.18v-3.41h8a8,8,0,0,1,4,1,6.75,6.75,0,0,1,2.7,2.75,9.26,9.26,0,0,1,0,8.21,6.78,6.78,0,0,1-2.7,2.74,8.2,8.2,0,0,1-4,1h-8Z" transform="translate(-1187.83 -213.2)"/><path class="cls-3" d="M1292.55,425.18h3.58v18.25h-3.58Zm8.84,3.45a4.33,4.33,0,0,0-1.67-.3,3.28,3.28,0,0,0-3.59,3.55l-.36-3.52a6.65,6.65,0,0,1,2.18-2.54,5.16,5.16,0,0,1,3-.9,6.74,6.74,0,0,1,2.26.36,5,5,0,0,1,1.76,1.06l-2.33,3.17A3,3,0,0,0,1301.39,428.63Z" transform="translate(-1187.83 -213.2)"/><path class="cls-3" d="M1310.5,442.76a6.12,6.12,0,0,1-2.58-2.72,9.57,9.57,0,0,1-.89-4.29v-3a9.39,9.39,0,0,1,.89-4.25,6.1,6.1,0,0,1,2.58-2.69,9.42,9.42,0,0,1,8.12,0,6.14,6.14,0,0,1,2.57,2.69,9.26,9.26,0,0,1,.89,4.25v3a9.31,9.31,0,0,1-.89,4.26,6.16,6.16,0,0,1-2.57,2.7,9.33,9.33,0,0,1-8.12,0Zm7-3.66a4.86,4.86,0,0,0,1-3.3v-3a4.82,4.82,0,0,0-1-3.29,4.23,4.23,0,0,0-5.82,0,4.77,4.77,0,0,0-1,3.29v3a4.82,4.82,0,0,0,1,3.3,4.18,4.18,0,0,0,5.82,0Z" transform="translate(-1187.83 -213.2)"/><path class="cls-3" d="M1324.72,447.44h2a.92.92,0,0,0,.77-.36,1.71,1.71,0,0,0,.27-1V425.18h3.58V446a5.23,5.23,0,0,1-1.11,3.57,4,4,0,0,1-3.16,1.27h-2.35Zm3-29.57h3.66v3.59h-3.66Z" transform="translate(-1187.83 -213.2)"/><path class="cls-3" d="M1341.77,443.69l-1.8-.95a6.38,6.38,0,0,1-2.73-2.78,9.77,9.77,0,0,1-.94-4.44v-2.06a10.66,10.66,0,0,1,.91-4.62,6.49,6.49,0,0,1,2.62-2.92,8.12,8.12,0,0,1,4.15-1,6.56,6.56,0,0,1,3.9,1.14,7.08,7.08,0,0,1,2.48,3.31,14.3,14.3,0,0,1,.85,5.18v1.2H1338.9v-2.89h8.9a6.22,6.22,0,0,0-1.15-3.47,3.27,3.27,0,0,0-2.67-1.24,3.87,3.87,0,0,0-3.15,1.34,5.7,5.7,0,0,0-1.12,3.78v2.32a4.74,4.74,0,0,0,1.2,3.48,4.52,4.52,0,0,0,3.39,1.21,5.49,5.49,0,0,0,2.16-.44,6.18,6.18,0,0,0,1.92-1.23l2.35,2.36a9.88,9.88,0,0,1-3,2,8.7,8.7,0,0,1-3.39.71Z" transform="translate(-1187.83 -213.2)"/><path class="cls-3" d="M1361,443.69l-1.77-.93a6.25,6.25,0,0,1-2.7-2.71,9.12,9.12,0,0,1-.93-4.29v-3a9,9,0,0,1,.93-4.24,6.29,6.29,0,0,1,2.7-2.68,9.18,9.18,0,0,1,4.26-.92,10.17,10.17,0,0,1,2.69.34,8.05,8.05,0,0,1,2.25,1,6.19,6.19,0,0,1,1.67,1.59l-2.58,2.32a5.43,5.43,0,0,0-1.81-1.36,5.22,5.22,0,0,0-2.16-.47,4.32,4.32,0,0,0-3.22,1.16,4.46,4.46,0,0,0-1.14,3.27v3a4.62,4.62,0,0,0,1.13,3.34,4.26,4.26,0,0,0,3.23,1.18,4.88,4.88,0,0,0,2.18-.51,5.28,5.28,0,0,0,1.79-1.44l2.58,2.5a6.39,6.39,0,0,1-1.68,1.55,7.82,7.82,0,0,1-2.26,1,10.5,10.5,0,0,1-2.67.33Z" transform="translate(-1187.83 -213.2)"/><path class="cls-3" d="M1372.65,425.18h8.23v3.24h-8.23Zm2.91,17.11a5.49,5.49,0,0,1-1-3.61V419.87h3.59v18.85a1.78,1.78,0,0,0,.26,1,.92.92,0,0,0,.78.36h1.72v3.41h-2.08A4,4,0,0,1,1375.56,442.29Z" transform="translate(-1187.83 -213.2)"/><path class="cls-3" d="M1390.63,443.69l-1.41-.31a11.59,11.59,0,0,1-2.65-.95,10.37,10.37,0,0,1-2.26-1.59l2.12-2.61a12,12,0,0,0,2.94,1.68,7.85,7.85,0,0,0,2.88.57,6.15,6.15,0,0,0,3.19-.66,2.18,2.18,0,0,0,1.07-2,1.56,1.56,0,0,0-.58-1.32,3.34,3.34,0,0,0-1.45-.59c-.57-.1-1.38-.19-2.42-.27h-.3a2.53,2.53,0,0,1-.3,0h-.28a14.82,14.82,0,0,1-3-.52,4,4,0,0,1-2-1.42,4.67,4.67,0,0,1-.82-3,6,6,0,0,1,.79-3.22,4.84,4.84,0,0,1,2.36-1.92,10.3,10.3,0,0,1,3.92-.64,14,14,0,0,1,2.71.26,12.69,12.69,0,0,1,2.47.78,13,13,0,0,1,2.27,1.31l-2.16,2.62a12.89,12.89,0,0,0-2.7-1.32,8.31,8.31,0,0,0-2.59-.43,4.89,4.89,0,0,0-2.75.62,2.11,2.11,0,0,0-.91,1.87,1.27,1.27,0,0,0,.52,1.11,3,3,0,0,0,1.31.49q.78.12,2.25.21l.22,0,.23,0h.21a16.79,16.79,0,0,1,3.27.51,4.39,4.39,0,0,1,2.25,1.53,5.22,5.22,0,0,1,.92,3.31,5.79,5.79,0,0,1-.85,3.26,5,5,0,0,1-2.53,1.94,12,12,0,0,1-4.27.65Z" transform="translate(-1187.83 -213.2)"/><path class="cls-3" d="M1230.71,526l0,.64a2.59,2.59,0,0,1-1.32,1.18,5.44,5.44,0,0,1-2.11.38,5.61,5.61,0,0,1-3.21-.93,6.07,6.07,0,0,1-2.16-2.63,9.47,9.47,0,0,1-.76-3.93h0a9.89,9.89,0,0,1,.83-4.24,5.94,5.94,0,0,1,2.45-2.67,7.68,7.68,0,0,1,3.86-.92,7.54,7.54,0,0,1,3.85.93,6.11,6.11,0,0,1,2.43,2.71,10,10,0,0,1,.83,4.27v0a13,13,0,0,1-.35,2.93,18.12,18.12,0,0,1-1,3.08l-.21.47c-.07.16-.15.31-.23.46l-5.45,11h-3.86Zm.17-2.21a5,5,0,0,0,.92-3.22v0a4.76,4.76,0,0,0-.92-3.12,3.65,3.65,0,0,0-5.24,0,4.73,4.73,0,0,0-.93,3.14v0a5,5,0,0,0,.93,3.21,3.59,3.59,0,0,0,5.24,0Z" transform="translate(-1187.83 -213.2)"/><path class="cls-3" d="M1242,537.07a7.34,7.34,0,0,1-1.86-5.34V520.11a7.31,7.31,0,1,1,14.59,0v11.62a6.58,6.58,0,0,1-7.29,7.26A7.21,7.21,0,0,1,1242,537.07Zm8.24-2.48a4.14,4.14,0,0,0,.9-2.86V520.11a4.14,4.14,0,0,0-.89-2.86,4.5,4.5,0,0,0-5.63,0,4.19,4.19,0,0,0-.89,2.86v11.62a4.14,4.14,0,0,0,.9,2.86,4.47,4.47,0,0,0,5.61,0Z" transform="translate(-1187.83 -213.2)"/><path class="cls-3" d="M1270.19,513.17h3.59v25.56h-3.59ZM1272,525.4h8.17a3.84,3.84,0,0,0,2-.54,3.68,3.68,0,0,0,1.36-1.55,5.8,5.8,0,0,0,0-4.62,3.7,3.7,0,0,0-1.36-1.56,3.76,3.76,0,0,0-2-.55H1272v-3.41h8a8.08,8.08,0,0,1,4,1,6.81,6.81,0,0,1,2.7,2.75,9.28,9.28,0,0,1,0,8.22,6.7,6.7,0,0,1-2.7,2.73,8.08,8.08,0,0,1-4,1h-8Z" transform="translate(-1187.83 -213.2)"/><path class="cls-3" d="M1291.37,520.48H1295v18.25h-3.59Zm8.84,3.44a4.49,4.49,0,0,0-1.67-.29,3.57,3.57,0,0,0-2.64.94,3.49,3.49,0,0,0-.94,2.61l-.37-3.52a6.66,6.66,0,0,1,2.18-2.54,5.16,5.16,0,0,1,3-.9,6.7,6.7,0,0,1,2.26.36,5.13,5.13,0,0,1,1.77,1.06l-2.34,3.16A3.12,3.12,0,0,0,1300.21,523.92Z" transform="translate(-1187.83 -213.2)"/><path class="cls-3" d="M1309.32,538.06a6.18,6.18,0,0,1-2.58-2.72,9.59,9.59,0,0,1-.88-4.3v-3a9.38,9.38,0,0,1,.88-4.24,6.1,6.1,0,0,1,2.58-2.69,9.42,9.42,0,0,1,8.12,0,6.16,6.16,0,0,1,2.58,2.69,9.38,9.38,0,0,1,.88,4.24v3a9.44,9.44,0,0,1-.88,4.26,6.24,6.24,0,0,1-2.58,2.7,9.33,9.33,0,0,1-8.12,0Zm7-3.66a4.88,4.88,0,0,0,1-3.3v-3a4.79,4.79,0,0,0-1-3.28,4.23,4.23,0,0,0-5.82,0,4.79,4.79,0,0,0-1,3.28v3a4.88,4.88,0,0,0,1,3.3,4.18,4.18,0,0,0,5.82,0Z" transform="translate(-1187.83 -213.2)"/><path class="cls-3" d="M1323.54,542.73h2a.91.91,0,0,0,.77-.36,1.69,1.69,0,0,0,.27-1V520.48h3.59v20.83a5.27,5.27,0,0,1-1.12,3.57,4,4,0,0,1-3.16,1.26h-2.35Zm3-29.56h3.66v3.58h-3.66Z" transform="translate(-1187.83 -213.2)"/><path class="cls-3" d="M1340.59,539l-1.79-1a6.32,6.32,0,0,1-2.74-2.79,9.71,9.71,0,0,1-.94-4.44v-2a10.75,10.75,0,0,1,.91-4.62,6.45,6.45,0,0,1,2.63-2.92,8.06,8.06,0,0,1,4.14-1,6.61,6.61,0,0,1,3.91,1.14,7.08,7.08,0,0,1,2.47,3.3,14.11,14.11,0,0,1,.85,5.19V531h-12.31v-2.88h8.9a6.19,6.19,0,0,0-1.15-3.47,3.23,3.23,0,0,0-2.67-1.24,3.88,3.88,0,0,0-3.15,1.34,5.75,5.75,0,0,0-1.12,3.77v2.33a4.74,4.74,0,0,0,1.2,3.48,4.59,4.59,0,0,0,3.39,1.21,5.67,5.67,0,0,0,2.16-.44,6.06,6.06,0,0,0,1.92-1.23l2.35,2.35a9.91,9.91,0,0,1-3,2,8.7,8.7,0,0,1-3.39.71Z" transform="translate(-1187.83 -213.2)"/><path class="cls-3" d="M1359.82,539l-1.77-.93a6.34,6.34,0,0,1-2.69-2.71,9,9,0,0,1-.94-4.29v-3a8.82,8.82,0,0,1,.94-4.24,6.27,6.27,0,0,1,2.69-2.68,9.07,9.07,0,0,1,4.27-.92,10.09,10.09,0,0,1,2.68.34,8.11,8.11,0,0,1,2.26,1,6.29,6.29,0,0,1,1.67,1.58l-2.59,2.32a5.44,5.44,0,0,0-1.81-1.35,5.07,5.07,0,0,0-2.16-.47,4.29,4.29,0,0,0-3.22,1.16,4.46,4.46,0,0,0-1.14,3.27v3a4.64,4.64,0,0,0,1.13,3.34,4.26,4.26,0,0,0,3.23,1.18,4.88,4.88,0,0,0,2.18-.51,5.28,5.28,0,0,0,1.79-1.44l2.59,2.49a6.47,6.47,0,0,1-1.69,1.56,7.8,7.8,0,0,1-2.26,1,10,10,0,0,1-2.66.34Z" transform="translate(-1187.83 -213.2)"/><path class="cls-3" d="M1371.47,520.48h8.23v3.23h-8.23Zm2.91,17.11a5.51,5.51,0,0,1-1-3.61V515.17h3.58V534a1.69,1.69,0,0,0,.27,1,.88.88,0,0,0,.77.36h1.72v3.41h-2.07A4,4,0,0,1,1374.38,537.59Z" transform="translate(-1187.83 -213.2)"/><path class="cls-3" d="M1389.46,539l-1.42-.32a10.64,10.64,0,0,1-2.64-.95,10.38,10.38,0,0,1-2.27-1.58l2.13-2.62a12.12,12.12,0,0,0,2.93,1.69,8.09,8.09,0,0,0,2.88.56,6.19,6.19,0,0,0,3.2-.66,2.19,2.19,0,0,0,1.06-2,1.56,1.56,0,0,0-.58-1.32,3.23,3.23,0,0,0-1.44-.59q-.87-.15-2.43-.27h-.3l-.3,0H1390a13.45,13.45,0,0,1-3-.52,4.06,4.06,0,0,1-2-1.41,4.67,4.67,0,0,1-.82-3,6,6,0,0,1,.79-3.22,4.78,4.78,0,0,1,2.36-1.92,10.34,10.34,0,0,1,3.92-.64,13.19,13.19,0,0,1,2.71.26,11.85,11.85,0,0,1,2.47.78,12.35,12.35,0,0,1,2.27,1.31l-2.16,2.62a11.78,11.78,0,0,0-2.7-1.32,8.29,8.29,0,0,0-2.59-.44,4.82,4.82,0,0,0-2.74.63,2.11,2.11,0,0,0-.92,1.87,1.27,1.27,0,0,0,.52,1.11,3.09,3.09,0,0,0,1.31.49q.8.12,2.25.21l.22,0h.34l.11,0a15.4,15.4,0,0,1,3.26.51,4.41,4.41,0,0,1,2.26,1.53,5.18,5.18,0,0,1,.91,3.31,5.89,5.89,0,0,1-.84,3.26,5.17,5.17,0,0,1-2.54,1.94,12.1,12.1,0,0,1-4.27.65Z" transform="translate(-1187.83 -213.2)"/></svg>