<svg id="Layer_1" data-name="Layer 1" xmlns="http://www.w3.org/2000/svg" viewBox="0 0 1468.3 848.5"><defs><style>.cls-1{isolation:isolate;}.cls-2{fill:#f5f5f5;}.cls-3{fill:#ef5a28;}</style></defs><title>City Light logo light</title><g class="cls-1"><path class="cls-2" d="M394.4,649.2a7.3,7.3,0,0,1-7.7,7.7H355.8a7.3,7.3,0,0,1-7.7-7.7V638.4c0-9.3-6.2-15.4-15.4-15.4H287.9c-9.3,0-15.4,6.2-15.4,15.4V746.5c0,9.3,6.2,15.4,15.4,15.4h44.8c9.3,0,15.4-6.2,15.4-15.4V735.7a7.3,7.3,0,0,1,7.7-7.7h30.9a7.3,7.3,0,0,1,7.7,7.7v20.1c0,32.4-15.4,47.9-47.9,47.9H273.9c-32.4,0-47.9-15.4-47.9-47.9V629.1c0-32.4,15.4-47.9,47.9-47.9h72.6c32.4,0,47.9,15.4,47.9,47.9Z" transform="translate(-226 -116.4)"/><path class="cls-2" d="M479.3,792.8a7.3,7.3,0,0,1-7.7,7.7H440.7a7.3,7.3,0,0,1-7.7-7.7V592a7.3,7.3,0,0,1,7.7-7.7h30.9a7.3,7.3,0,0,1,7.7,7.7Z" transform="translate(-226 -116.4)"/><path class="cls-2" d="M609.1,792.8a7.3,7.3,0,0,1-7.7,7.7H570.5a7.3,7.3,0,0,1-7.7-7.7V626H513.4a7.3,7.3,0,0,1-7.7-7.7V592a7.3,7.3,0,0,1,7.7-7.7H658.6a7.3,7.3,0,0,1,7.7,7.7v26.3a7.3,7.3,0,0,1-7.7,7.7H609.2l-.1,166.8Z" transform="translate(-226 -116.4)"/><path class="cls-2" d="M757,672.4h3.1l37.1-80.3c2.2-4.6,4.6-7.7,12.4-7.7h34c4.6,0,7.1,3.1,4.6,7.7L781.8,726.5v66.4a7.3,7.3,0,0,1-7.7,7.7H743.2a7.3,7.3,0,0,1-7.7-7.7V726.5L669,592c-2.5-4.6,0-7.7,4.6-7.7h34c7.7,0,10.2,3.1,12.4,7.7Z" transform="translate(-226 -116.4)"/><path class="cls-2" d="M917.4,758.9h92.7a7.3,7.3,0,0,1,7.7,7.7v26.3a7.3,7.3,0,0,1-7.7,7.7H878.7a7.3,7.3,0,0,1-7.7-7.7V592a7.3,7.3,0,0,1,7.7-7.7h30.9a7.3,7.3,0,0,1,7.7,7.7l.1,166.9Z" transform="translate(-226 -116.4)"/><path class="cls-2" d="M1087.2,792.8a7.3,7.3,0,0,1-7.7,7.7h-30.9a7.3,7.3,0,0,1-7.7-7.7V592a7.3,7.3,0,0,1,7.7-7.7h30.9a7.3,7.3,0,0,1,7.7,7.7Z" transform="translate(-226 -116.4)"/><path class="cls-2" d="M1298.8,755.8c0,32.4-15.4,47.9-47.9,47.9h-72.6c-32.4,0-47.9-15.4-47.9-47.9V629.1c0-32.4,15.4-47.9,47.9-47.9h72.6c32.4,0,47.9,15.4,47.9,47.9v20.1a7.3,7.3,0,0,1-7.7,7.7h-30.9a7.3,7.3,0,0,1-7.7-7.7V638.4c0-9.3-6.2-15.4-15.4-15.4h-44.8c-9.3,0-15.4,6.2-15.4,15.4V746.5c0,9.3,6.2,15.4,15.4,15.4h44.8c9.3,0,15.4-6.2,15.4-15.4V721.8h-29.3a7.3,7.3,0,0,1-7.7-7.7V687.8a7.3,7.3,0,0,1,7.7-7.7h68a7.3,7.3,0,0,1,7.7,7.7l-.1,68Z" transform="translate(-226 -116.4)"/><path class="cls-2" d="M1388.4,672.4H1461V592a7.3,7.3,0,0,1,7.7-7.7h30.9a7.3,7.3,0,0,1,7.7,7.7V792.8a7.3,7.3,0,0,1-7.7,7.7h-30.9a7.3,7.3,0,0,1-7.7-7.7V714h-72.6v78.8a7.3,7.3,0,0,1-7.7,7.7h-30.9a7.3,7.3,0,0,1-7.7-7.7V592a7.3,7.3,0,0,1,7.7-7.7h30.9a7.3,7.3,0,0,1,7.7,7.7Z" transform="translate(-226 -116.4)"/><path class="cls-2" d="M1637.1,792.8a7.3,7.3,0,0,1-7.7,7.7h-30.9a7.3,7.3,0,0,1-7.7-7.7V626h-49.4a7.3,7.3,0,0,1-7.7-7.7V592a7.3,7.3,0,0,1,7.7-7.7h145.2a7.3,7.3,0,0,1,7.7,7.7v26.3a7.3,7.3,0,0,1-7.7,7.7h-49.4l-.1,166.8Z" transform="translate(-226 -116.4)"/></g><g class="cls-1"><path class="cls-2" d="M399.8,909.3a2.62,2.62,0,0,1-2.8,2.8H385.9a2.62,2.62,0,0,1-2.8-2.8v-3.9a5.3,5.3,0,0,0-5.6-5.6H361.4a5.3,5.3,0,0,0-5.6,5.6v38.9a5.3,5.3,0,0,0,5.6,5.6h16.1a5.3,5.3,0,0,0,5.6-5.6v-3.9a2.62,2.62,0,0,1,2.8-2.8H397a2.62,2.62,0,0,1,2.8,2.8v7.2c0,11.7-5.6,17.2-17.2,17.2H356.5c-11.7,0-17.2-5.6-17.2-17.2V902c0-11.7,5.6-17.2,17.2-17.2h26.1c11.7,0,17.2,5.6,17.2,17.2Z" transform="translate(-226 -116.4)"/><path class="cls-2" d="M474.3,947.7c0,11.7-5.6,17.2-17.2,17.2H429.9c-11.7,0-17.2-5.6-17.2-17.2V902.1c0-11.7,5.6-17.2,17.2-17.2H457c11.7,0,17.2,5.6,17.2,17.2l.1,45.6Zm-16.7-42.3a5.3,5.3,0,0,0-5.6-5.6H434.8a5.3,5.3,0,0,0-5.6,5.6v38.9a5.3,5.3,0,0,0,5.6,5.6H452a5.3,5.3,0,0,0,5.6-5.6Z" transform="translate(-226 -116.4)"/><path class="cls-2" d="M526,963.8a3.75,3.75,0,0,1-3.9-2.8l-14.5-42.3h-1.1V961a2.62,2.62,0,0,1-2.8,2.8H492.6a2.62,2.62,0,0,1-2.8-2.8V888.7a2.62,2.62,0,0,1,2.8-2.8h15.6a3.75,3.75,0,0,1,3.9,2.8l16.7,47.8h1.1l16.7-47.8a3.75,3.75,0,0,1,3.9-2.8H566a2.62,2.62,0,0,1,2.8,2.8V961a2.62,2.62,0,0,1-2.8,2.8H554.9a2.62,2.62,0,0,1-2.8-2.8V918.7H551L536.6,961a3.75,3.75,0,0,1-3.9,2.8Z" transform="translate(-226 -116.4)"/><path class="cls-2" d="M621.6,963.8a3.75,3.75,0,0,1-3.9-2.8l-14.5-42.3h-1.1V961a2.62,2.62,0,0,1-2.8,2.8H588.2a2.62,2.62,0,0,1-2.8-2.8V888.7a2.62,2.62,0,0,1,2.8-2.8h15.6a3.75,3.75,0,0,1,3.9,2.8l16.7,47.8h1.1l16.7-47.8a3.75,3.75,0,0,1,3.9-2.8h15.6a2.62,2.62,0,0,1,2.8,2.8V961a2.62,2.62,0,0,1-2.8,2.8H650.6a2.62,2.62,0,0,1-2.8-2.8V918.7h-1.1L632.2,961a3.75,3.75,0,0,1-3.9,2.8Z" transform="translate(-226 -116.4)"/><path class="cls-2" d="M697.8,948.8h35.6a2.62,2.62,0,0,1,2.8,2.8v9.5a2.62,2.62,0,0,1-2.8,2.8H683.9a2.62,2.62,0,0,1-2.8-2.8V888.8a2.62,2.62,0,0,1,2.8-2.8h48.4a2.62,2.62,0,0,1,2.8,2.8v9.5a2.62,2.62,0,0,1-2.8,2.8H697.8v15.6h26.1a2.62,2.62,0,0,1,2.8,2.8V929a2.62,2.62,0,0,1-2.8,2.8H697.8Z" transform="translate(-226 -116.4)"/><path class="cls-2" d="M795.1,938.2,806.2,961a1.89,1.89,0,0,1-1.7,2.8h-12c-2.4,0-3.3-1.1-4.1-2.8l-10-21.7H764V961a2.62,2.62,0,0,1-2.8,2.8H750.1a2.62,2.62,0,0,1-2.8-2.8V888.7a2.62,2.62,0,0,1,2.8-2.8h38.4c11.7,0,17.2,5.6,17.2,17.2V922C805.7,937.1,795.1,938.2,795.1,938.2ZM764,901v23.4h19.5a5.3,5.3,0,0,0,5.6-5.6V906.6a5.3,5.3,0,0,0-5.6-5.6Z" transform="translate(-226 -116.4)"/><path class="cls-2" d="M879.9,909.3a2.62,2.62,0,0,1-2.8,2.8H866a2.62,2.62,0,0,1-2.8-2.8v-3.9a5.3,5.3,0,0,0-5.6-5.6H841.5a5.3,5.3,0,0,0-5.6,5.6v38.9a5.3,5.3,0,0,0,5.6,5.6h16.1a5.3,5.3,0,0,0,5.6-5.6v-3.9a2.62,2.62,0,0,1,2.8-2.8h11.1a2.62,2.62,0,0,1,2.8,2.8v7.2c0,11.7-5.6,17.2-17.2,17.2H836.6c-11.7,0-17.2-5.6-17.2-17.2V902c0-11.7,5.6-17.2,17.2-17.2h26.1c11.7,0,17.2,5.6,17.2,17.2v7.3Z" transform="translate(-226 -116.4)"/><path class="cls-2" d="M910.5,961a2.62,2.62,0,0,1-2.8,2.8H896.6a2.62,2.62,0,0,1-2.8-2.8V888.7a2.62,2.62,0,0,1,2.8-2.8h11.1a2.62,2.62,0,0,1,2.8,2.8Z" transform="translate(-226 -116.4)"/><path class="cls-2" d="M940.8,947.7,936.9,961c-.4,1.7-1.7,2.8-3.9,2.8H920.8c-1.4,0-2.2-1.1-1.7-2.8l23.4-72.3a3.75,3.75,0,0,1,3.9-2.8h13.3a3.75,3.75,0,0,1,3.9,2.8L987,961c.6,1.7-.3,2.8-1.7,2.8H973a3.75,3.75,0,0,1-3.9-2.8l-3.9-13.3Zm20-15-7.2-24.5h-1.1l-7.2,24.5Z" transform="translate(-226 -116.4)"/><path class="cls-2" d="M1012.2,948.8h33.4a2.62,2.62,0,0,1,2.8,2.8v9.5a2.62,2.62,0,0,1-2.8,2.8H998.3a2.62,2.62,0,0,1-2.8-2.8V888.8a2.62,2.62,0,0,1,2.8-2.8h11.1a2.62,2.62,0,0,1,2.8,2.8Z" transform="translate(-226 -116.4)"/><path class="cls-2" d="M1117.3,941c0-2.8-1.1-3.9-3.9-5l-24.5-9.5c-8.3-3.2-12.2-7.2-12.2-16.7V902c0-11.7,5.6-17.2,17.2-17.2h21.7c11.7,0,17.2,5.6,17.2,17.2v7.2a2.62,2.62,0,0,1-2.8,2.8h-11.1a2.62,2.62,0,0,1-2.8-2.8v-3.9a5.3,5.3,0,0,0-5.6-5.6h-11.7a5.3,5.3,0,0,0-5.6,5.6v3.3c0,2.8,1.1,3.9,3.9,5l24.5,9.5c8.3,3.2,12.2,7.2,12.2,16.7v7.8c0,11.7-5.6,17.2-17.2,17.2h-23.9c-11.7,0-17.2-5.6-17.2-17.2v-7.2a2.62,2.62,0,0,1,2.8-2.8h11.1a2.62,2.62,0,0,1,2.8,2.8v3.9a5.3,5.3,0,0,0,5.6,5.6h13.9a5.3,5.3,0,0,0,5.6-5.6Z" transform="translate(-226 -116.4)"/><path class="cls-2" d="M1164,948.8h35.6a2.62,2.62,0,0,1,2.8,2.8v9.5a2.62,2.62,0,0,1-2.8,2.8h-49.5a2.62,2.62,0,0,1-2.8-2.8V888.8a2.62,2.62,0,0,1,2.8-2.8h48.4a2.62,2.62,0,0,1,2.8,2.8v9.5a2.62,2.62,0,0,1-2.8,2.8H1164v15.6h26.1a2.62,2.62,0,0,1,2.8,2.8V929a2.62,2.62,0,0,1-2.8,2.8H1164Z" transform="translate(-226 -116.4)"/><path class="cls-2" d="M1261.3,938.2l11.1,22.8a1.89,1.89,0,0,1-1.7,2.8h-12c-2.4,0-3.3-1.1-4.1-2.8l-10-21.7h-14.5V961a2.62,2.62,0,0,1-2.8,2.8h-11.1a2.62,2.62,0,0,1-2.8-2.8V888.7a2.62,2.62,0,0,1,2.8-2.8h38.4c11.7,0,17.2,5.6,17.2,17.2V922C1271.8,937.1,1261.3,938.2,1261.3,938.2ZM1230.1,901v23.4h19.5a5.3,5.3,0,0,0,5.6-5.6V906.6a5.3,5.3,0,0,0-5.6-5.6Z" transform="translate(-226 -116.4)"/><path class="cls-2" d="M1310.8,934.3h1.1l14.5-45.6c.4-1.7,1.7-2.8,3.9-2.8h12.2c1.3,0,2.2,1.1,1.7,2.8l-25,72.3a3.75,3.75,0,0,1-3.9,2.8h-7.8a3.75,3.75,0,0,1-3.9-2.8l-25-72.3c-.6-1.7.2-2.8,1.7-2.8h12.2a3.75,3.75,0,0,1,3.9,2.8Z" transform="translate(-226 -116.4)"/><path class="cls-2" d="M1369.4,961a2.62,2.62,0,0,1-2.8,2.8h-11.1a2.62,2.62,0,0,1-2.8-2.8V888.7a2.62,2.62,0,0,1,2.8-2.8h11.1a2.62,2.62,0,0,1,2.8,2.8Z" transform="translate(-226 -116.4)"/><path class="cls-2" d="M1445.5,909.3a2.62,2.62,0,0,1-2.8,2.8h-11.1a2.62,2.62,0,0,1-2.8-2.8v-3.9a5.3,5.3,0,0,0-5.6-5.6h-16.1a5.3,5.3,0,0,0-5.6,5.6v38.9a5.3,5.3,0,0,0,5.6,5.6h16.1a5.3,5.3,0,0,0,5.6-5.6v-3.9a2.62,2.62,0,0,1,2.8-2.8h11.1a2.62,2.62,0,0,1,2.8,2.8v7.2c0,11.7-5.6,17.2-17.2,17.2h-26.1c-11.7,0-17.2-5.6-17.2-17.2V902c0-11.7,5.6-17.2,17.2-17.2h26.1c11.7,0,17.2,5.6,17.2,17.2Z" transform="translate(-226 -116.4)"/><path class="cls-2" d="M1476.1,948.8h35.6a2.62,2.62,0,0,1,2.8,2.8v9.5a2.62,2.62,0,0,1-2.8,2.8h-49.5a2.62,2.62,0,0,1-2.8-2.8V888.8a2.62,2.62,0,0,1,2.8-2.8h48.4a2.62,2.62,0,0,1,2.8,2.8v9.5a2.62,2.62,0,0,1-2.8,2.8h-34.5v15.6h26.1a2.62,2.62,0,0,1,2.8,2.8V929a2.62,2.62,0,0,1-2.8,2.8h-26.1Z" transform="translate(-226 -116.4)"/><path class="cls-2" d="M1564,941c0-2.8-1.1-3.9-3.9-5l-24.5-9.5c-8.3-3.2-12.2-7.2-12.2-16.7V902c0-11.7,5.6-17.2,17.2-17.2h21.7c11.7,0,17.2,5.6,17.2,17.2v7.2a2.62,2.62,0,0,1-2.8,2.8h-11.1a2.62,2.62,0,0,1-2.8-2.8v-3.9a5.3,5.3,0,0,0-5.6-5.6h-11.7a5.3,5.3,0,0,0-5.6,5.6v3.3c0,2.8,1.1,3.9,3.9,5l24.5,9.5c8.3,3.2,12.2,7.2,12.2,16.7v7.8c0,11.7-5.6,17.2-17.2,17.2h-23.9c-11.7,0-17.2-5.6-17.2-17.2v-7.2a2.62,2.62,0,0,1,2.8-2.8h11.1a2.62,2.62,0,0,1,2.8,2.8v3.9a5.3,5.3,0,0,0,5.6,5.6h13.9a5.3,5.3,0,0,0,5.6-5.6Z" transform="translate(-226 -116.4)"/></g><path class="cls-3" d="M1085.2,153.7a67.39,67.39,0,0,0-14.6-19.4,71.37,71.37,0,0,0-21.4-13.2,72.68,72.68,0,0,0-26.4-4.7H886.7a72,72,0,0,0-26.1,4.7,70.65,70.65,0,0,0-21.5,13.2,63.57,63.57,0,0,0-14.6,19.4,53.06,53.06,0,0,0-5.5,23.9V182H942.4v.1h75.4v48.1h72.6V177.6A55.9,55.9,0,0,0,1085.2,153.7Z" transform="translate(-226 -116.4)"/><path class="cls-3" d="M993.8,430.4H892.2V203.9H819V435.4a51,51,0,0,0,5.5,23.4,61,61,0,0,0,14.6,19.7,65.89,65.89,0,0,0,21.5,13.2,68.53,68.53,0,0,0,26.1,5H993.8V430.4Z" transform="translate(-226 -116.4)"/><path class="cls-3" d="M1017.8,374.8v7.7h0V496.7h4.9a70.45,70.45,0,0,0,26.4-5,66.65,66.65,0,0,0,36-32.6,54.07,54.07,0,0,0,5.2-23.7V374.8Z" transform="translate(-226 -116.4)"/></svg>