<svg id="Layer_1" data-name="Layer 1" xmlns="http://www.w3.org/2000/svg" viewBox="0 0 1491.69 380.3"><defs><style>.cls-1{fill:#ef5a28;}.cls-2{isolation:isolate;}.cls-3{fill:#f5f5f5;}</style></defs><title>City Light logo horizontal</title><path class="cls-1" d="M465.2,357.3a67.39,67.39,0,0,0-14.6-19.4,71.37,71.37,0,0,0-21.4-13.2,72.68,72.68,0,0,0-26.4-4.7H266.7a72,72,0,0,0-26.1,4.7,70.65,70.65,0,0,0-21.5,13.2,63.57,63.57,0,0,0-14.6,19.4,53.06,53.06,0,0,0-5.5,23.9v4.4H322.4v.1h75.4v48.1h72.6V381.2A55.9,55.9,0,0,0,465.2,357.3Z" transform="translate(-199 -320)"/><path class="cls-1" d="M373.8,634H272.2V407.5H199V639a51,51,0,0,0,5.5,23.4,61,61,0,0,0,14.6,19.7,65.89,65.89,0,0,0,21.5,13.2,68.53,68.53,0,0,0,26.1,5H373.8V634Z" transform="translate(-199 -320)"/><path class="cls-1" d="M397.8,578.4v7.7h0V700.3h4.9a70.45,70.45,0,0,0,26.4-5,66.65,66.65,0,0,0,36-32.6,54.07,54.07,0,0,0,5.2-23.7V578.4Z" transform="translate(-199 -320)"/><g class="cls-2"><path class="cls-3" d="M658.42,420.25a5.8,5.8,0,0,1-6.11,6.12H627.77a5.81,5.81,0,0,1-6.12-6.12v-8.57c0-7.39-4.92-12.23-12.22-12.23H573.85c-7.39,0-12.23,4.92-12.23,12.23v85.84c0,7.38,4.92,12.23,12.23,12.23h35.58c7.38,0,12.22-4.93,12.22-12.23v-8.58a5.8,5.8,0,0,1,6.12-6.11h24.54a5.79,5.79,0,0,1,6.11,6.11v16c0,25.73-12.23,38-38,38H562.73c-25.73,0-38-12.23-38-38V404.29c0-25.73,12.23-38,38-38h57.65c25.73,0,38,12.23,38,38Z" transform="translate(-199 -320)"/><path class="cls-3" d="M725.84,534.29a5.79,5.79,0,0,1-6.11,6.11H695.19a5.8,5.8,0,0,1-6.12-6.11V374.83a5.81,5.81,0,0,1,6.12-6.12h24.54a5.8,5.8,0,0,1,6.11,6.12Z" transform="translate(-199 -320)"/><path class="cls-3" d="M828.92,534.29a5.79,5.79,0,0,1-6.12,6.11H798.26a5.79,5.79,0,0,1-6.11-6.11V401.83H752.92a5.79,5.79,0,0,1-6.11-6.12V374.83a5.8,5.8,0,0,1,6.11-6.12H868.23a5.8,5.8,0,0,1,6.11,6.12v20.88a5.79,5.79,0,0,1-6.11,6.12H829l-.08,132.46Z" transform="translate(-199 -320)"/><path class="cls-3" d="M946.37,438.68h2.46l29.46-63.77c1.75-3.65,3.65-6.12,9.85-6.12h27c3.65,0,5.63,2.47,3.65,6.12L966.06,481.64v52.73a5.79,5.79,0,0,1-6.11,6.11H935.41a5.79,5.79,0,0,1-6.12-6.11V481.64L876.48,374.83c-2-3.65,0-6.12,3.66-6.12h27c6.11,0,8.1,2.47,9.84,6.12Z" transform="translate(-199 -320)"/><path class="cls-3" d="M1073.74,507.37h73.62a5.79,5.79,0,0,1,6.11,6.11v20.89a5.79,5.79,0,0,1-6.11,6.11H1043a5.8,5.8,0,0,1-6.12-6.11V374.83a5.81,5.81,0,0,1,6.12-6.12h24.54a5.8,5.8,0,0,1,6.11,6.12l.08,132.54Z" transform="translate(-199 -320)"/><path class="cls-3" d="M1208.58,534.29a5.79,5.79,0,0,1-6.11,6.11h-24.54a5.8,5.8,0,0,1-6.12-6.11V374.83a5.81,5.81,0,0,1,6.12-6.12h24.54a5.8,5.8,0,0,1,6.11,6.12Z" transform="translate(-199 -320)"/><path class="cls-3" d="M1376.61,504.9c0,25.73-12.22,38-38,38h-57.66c-25.72,0-38-12.23-38-38V404.29c0-25.73,12.23-38,38-38h57.66c25.73,0,38,12.23,38,38v16a5.8,5.8,0,0,1-6.11,6.12H1346a5.8,5.8,0,0,1-6.11-6.12v-8.57c0-7.39-4.93-12.23-12.23-12.23H1292c-7.38,0-12.23,4.92-12.23,12.23v85.84c0,7.38,4.93,12.23,12.23,12.23h35.58c7.38,0,12.23-4.93,12.23-12.23V477.9h-23.27a5.79,5.79,0,0,1-6.11-6.11V450.9a5.79,5.79,0,0,1,6.11-6.11h54a5.79,5.79,0,0,1,6.11,6.11l-.08,54Z" transform="translate(-199 -320)"/><path class="cls-3" d="M1447.77,438.68h57.65V374.83a5.8,5.8,0,0,1,6.11-6.12h24.54a5.81,5.81,0,0,1,6.12,6.12V534.29a5.8,5.8,0,0,1-6.12,6.11h-24.54a5.79,5.79,0,0,1-6.11-6.11V471.71h-57.65v62.58a5.79,5.79,0,0,1-6.12,6.11h-24.54a5.79,5.79,0,0,1-6.11-6.11V374.83a5.8,5.8,0,0,1,6.11-6.12h24.54a5.8,5.8,0,0,1,6.12,6.12Z" transform="translate(-199 -320)"/><path class="cls-3" d="M1645.26,534.29a5.79,5.79,0,0,1-6.11,6.11h-24.54a5.8,5.8,0,0,1-6.12-6.11V401.83h-39.22a5.79,5.79,0,0,1-6.12-6.12V374.83a5.8,5.8,0,0,1,6.12-6.12h115.3a5.81,5.81,0,0,1,6.12,6.12v20.88a5.8,5.8,0,0,1-6.12,6.12h-39.23l-.08,132.46Z" transform="translate(-199 -320)"/></g><g class="cls-2"><path class="cls-3" d="M662.71,626.8a2.08,2.08,0,0,1-2.22,2.22h-8.82a2.08,2.08,0,0,1-2.22-2.22v-3.1a4.21,4.21,0,0,0-4.45-4.44H632.22a4.21,4.21,0,0,0-4.45,4.44v30.89a4.21,4.21,0,0,0,4.45,4.45H645a4.21,4.21,0,0,0,4.45-4.45V651.5a2.09,2.09,0,0,1,2.22-2.23h8.82a2.09,2.09,0,0,1,2.22,2.23v5.71c0,9.3-4.45,13.66-13.66,13.66H628.32c-9.29,0-13.65-4.44-13.65-13.66V621c0-9.29,4.44-13.66,13.65-13.66h20.73c9.29,0,13.66,4.45,13.66,13.66Z" transform="translate(-199 -320)"/><path class="cls-3" d="M721.87,657.29c0,9.29-4.45,13.66-13.66,13.66h-21.6c-9.29,0-13.66-4.44-13.66-13.66V621.08c0-9.29,4.45-13.66,13.66-13.66h21.52c9.29,0,13.66,4.45,13.66,13.66l.08,36.21ZM708.61,623.7a4.21,4.21,0,0,0-4.45-4.44H690.5a4.2,4.2,0,0,0-4.44,4.44v30.89A4.21,4.21,0,0,0,690.5,659h13.66a4.21,4.21,0,0,0,4.45-4.45Z" transform="translate(-199 -320)"/><path class="cls-3" d="M762.93,670.08a3,3,0,0,1-3.1-2.22l-11.52-33.6h-.87v33.6a2.08,2.08,0,0,1-2.22,2.22H736.4a2.08,2.08,0,0,1-2.22-2.22V610.44a2.08,2.08,0,0,1,2.22-2.22h12.39a3,3,0,0,1,3.1,2.22l13.26,38H766l13.27-38a3,3,0,0,1,3.09-2.22h12.31a2.08,2.08,0,0,1,2.22,2.22v57.42a2.08,2.08,0,0,1-2.22,2.22h-8.81a2.09,2.09,0,0,1-2.23-2.22v-33.6h-.87l-11.44,33.6a3,3,0,0,1-3.09,2.22Z" transform="translate(-199 -320)"/><path class="cls-3" d="M838.84,670.08a3,3,0,0,1-3.09-2.22l-11.52-33.6h-.87v33.6a2.09,2.09,0,0,1-2.23,2.22h-8.81a2.08,2.08,0,0,1-2.22-2.22V610.44a2.08,2.08,0,0,1,2.22-2.22h12.39a3,3,0,0,1,3.1,2.22l13.26,38h.87l13.26-38a3,3,0,0,1,3.1-2.22h12.39a2.08,2.08,0,0,1,2.22,2.22v57.42a2.08,2.08,0,0,1-2.22,2.22h-8.82a2.08,2.08,0,0,1-2.22-2.22v-33.6h-.87l-11.52,33.6a3,3,0,0,1-3.1,2.22Z" transform="translate(-199 -320)"/><path class="cls-3" d="M899.35,658.17h28.27a2.09,2.09,0,0,1,2.23,2.22v7.54a2.09,2.09,0,0,1-2.23,2.23h-39.3a2.09,2.09,0,0,1-2.23-2.23V610.52a2.09,2.09,0,0,1,2.23-2.22h38.43a2.08,2.08,0,0,1,2.22,2.22v7.54a2.09,2.09,0,0,1-2.22,2.23h-27.4v12.39h20.73a2.08,2.08,0,0,1,2.22,2.22v7.54a2.09,2.09,0,0,1-2.22,2.23H899.35Z" transform="translate(-199 -320)"/><path class="cls-3" d="M976.62,649.75l8.82,18.11a1.5,1.5,0,0,1-1.35,2.22h-9.53a3.17,3.17,0,0,1-3.26-2.22l-7.94-17.24H951.92v17.24a2.08,2.08,0,0,1-2.22,2.22h-8.81a2.09,2.09,0,0,1-2.23-2.22V610.44a2.09,2.09,0,0,1,2.23-2.22h30.49c9.29,0,13.66,4.44,13.66,13.66v15C985,648.88,976.62,649.75,976.62,649.75Zm-24.7-29.54v18.58h15.49a4.21,4.21,0,0,0,4.45-4.45v-9.68a4.21,4.21,0,0,0-4.45-4.45Z" transform="translate(-199 -320)"/><path class="cls-3" d="M1044,626.8a2.08,2.08,0,0,1-2.22,2.22h-8.82a2.08,2.08,0,0,1-2.22-2.22v-3.1a4.21,4.21,0,0,0-4.45-4.44h-12.78a4.21,4.21,0,0,0-4.45,4.44v30.89a4.21,4.21,0,0,0,4.45,4.45h12.78a4.21,4.21,0,0,0,4.45-4.45V651.5a2.09,2.09,0,0,1,2.22-2.23h8.82a2.09,2.09,0,0,1,2.22,2.23v5.71c0,9.3-4.44,13.66-13.66,13.66h-20.72c-9.29,0-13.66-4.44-13.66-13.66V621c0-9.29,4.45-13.66,13.66-13.66h20.72c9.29,0,13.66,4.45,13.66,13.66v5.8Z" transform="translate(-199 -320)"/><path class="cls-3" d="M1068.26,667.86a2.08,2.08,0,0,1-2.22,2.22h-8.82a2.08,2.08,0,0,1-2.22-2.22V610.44a2.08,2.08,0,0,1,2.22-2.22H1066a2.08,2.08,0,0,1,2.22,2.22Z" transform="translate(-199 -320)"/><path class="cls-3" d="M1092.32,657.29l-3.09,10.57a2.86,2.86,0,0,1-3.1,2.22h-9.69c-1.11,0-1.75-.87-1.35-2.22l18.58-57.42a3,3,0,0,1,3.1-2.22h10.56a3,3,0,0,1,3.1,2.22L1129,667.86c.48,1.35-.24,2.22-1.35,2.22h-9.77a3,3,0,0,1-3.09-2.22l-3.1-10.57Zm15.89-11.91-5.72-19.45h-.88l-5.71,19.45Z" transform="translate(-199 -320)"/><path class="cls-3" d="M1149,658.17h26.53a2.08,2.08,0,0,1,2.22,2.22v7.54a2.09,2.09,0,0,1-2.22,2.23H1138a2.09,2.09,0,0,1-2.22-2.23V610.52a2.08,2.08,0,0,1,2.22-2.22h8.82a2.08,2.08,0,0,1,2.22,2.22Z" transform="translate(-199 -320)"/><path class="cls-3" d="M1232.48,652c0-2.22-.87-3.09-3.09-4l-19.46-7.54c-6.59-2.54-9.69-5.72-9.69-13.26V621c0-9.29,4.45-13.66,13.66-13.66h17.23c9.29,0,13.66,4.45,13.66,13.66v5.72a2.08,2.08,0,0,1-2.22,2.22h-8.82a2.08,2.08,0,0,1-2.22-2.22v-3.1a4.21,4.21,0,0,0-4.45-4.44h-9.29a4.2,4.2,0,0,0-4.44,4.44v2.62c0,2.23.87,3.1,3.09,4l19.46,7.55c6.59,2.54,9.69,5.72,9.69,13.26v6.19c0,9.3-4.45,13.66-13.66,13.66h-19c-9.29,0-13.66-4.44-13.66-13.66V651.5a2.09,2.09,0,0,1,2.22-2.23h8.82a2.09,2.09,0,0,1,2.22,2.23v3.09A4.21,4.21,0,0,0,1217,659h11a4.21,4.21,0,0,0,4.44-4.45Z" transform="translate(-199 -320)"/><path class="cls-3" d="M1269.57,658.17h28.27a2.08,2.08,0,0,1,2.22,2.22v7.54a2.09,2.09,0,0,1-2.22,2.23h-39.31a2.09,2.09,0,0,1-2.22-2.23V610.52a2.08,2.08,0,0,1,2.22-2.22H1297a2.08,2.08,0,0,1,2.22,2.22v7.54a2.09,2.09,0,0,1-2.22,2.23h-27.4v12.39h20.73a2.08,2.08,0,0,1,2.22,2.22v7.54a2.09,2.09,0,0,1-2.22,2.23h-20.73Z" transform="translate(-199 -320)"/><path class="cls-3" d="M1346.84,649.75l8.81,18.11a1.5,1.5,0,0,1-1.35,2.22h-9.53a3.16,3.16,0,0,1-3.25-2.22l-8-17.24h-11.51v17.24a2.08,2.08,0,0,1-2.22,2.22H1311a2.08,2.08,0,0,1-2.22-2.22V610.44a2.08,2.08,0,0,1,2.22-2.22h30.5c9.29,0,13.65,4.44,13.65,13.66v15C1355.17,648.88,1346.84,649.75,1346.84,649.75Zm-24.78-29.54v18.58h15.48a4.21,4.21,0,0,0,4.45-4.45v-9.68a4.21,4.21,0,0,0-4.45-4.45Z" transform="translate(-199 -320)"/><path class="cls-3" d="M1386.14,646.65h.88l11.51-36.21a2.86,2.86,0,0,1,3.1-2.22h9.69c1,0,1.74.87,1.35,2.22l-19.86,57.42a3,3,0,0,1-3.09,2.22h-6.2a3,3,0,0,1-3.09-2.22l-19.86-57.42c-.47-1.35.16-2.22,1.35-2.22h9.69a3,3,0,0,1,3.1,2.22Z" transform="translate(-199 -320)"/><path class="cls-3" d="M1432.68,667.86a2.08,2.08,0,0,1-2.22,2.22h-8.82a2.08,2.08,0,0,1-2.22-2.22V610.44a2.08,2.08,0,0,1,2.22-2.22h8.82a2.08,2.08,0,0,1,2.22,2.22Z" transform="translate(-199 -320)"/><path class="cls-3" d="M1493.11,626.8a2.08,2.08,0,0,1-2.22,2.22h-8.82a2.08,2.08,0,0,1-2.22-2.22v-3.1a4.21,4.21,0,0,0-4.45-4.44h-12.78a4.21,4.21,0,0,0-4.45,4.44v30.89a4.21,4.21,0,0,0,4.45,4.45h12.78a4.21,4.21,0,0,0,4.45-4.45V651.5a2.09,2.09,0,0,1,2.22-2.23h8.82a2.09,2.09,0,0,1,2.22,2.23v5.71c0,9.3-4.45,13.66-13.66,13.66h-20.72c-9.3,0-13.66-4.44-13.66-13.66V621c0-9.29,4.44-13.66,13.66-13.66h20.72c9.29,0,13.66,4.45,13.66,13.66Z" transform="translate(-199 -320)"/><path class="cls-3" d="M1517.41,658.17h28.27a2.08,2.08,0,0,1,2.22,2.22v7.54a2.09,2.09,0,0,1-2.22,2.23h-39.31a2.09,2.09,0,0,1-2.22-2.23V610.52a2.08,2.08,0,0,1,2.22-2.22h38.44a2.08,2.08,0,0,1,2.22,2.22v7.54a2.09,2.09,0,0,1-2.22,2.23h-27.4v12.39h20.73a2.08,2.08,0,0,1,2.22,2.22v7.54a2.09,2.09,0,0,1-2.22,2.23h-20.73Z" transform="translate(-199 -320)"/><path class="cls-3" d="M1587.21,652c0-2.22-.87-3.09-3.09-4l-19.46-7.54c-6.59-2.54-9.69-5.72-9.69-13.26V621c0-9.29,4.45-13.66,13.66-13.66h17.23c9.29,0,13.66,4.45,13.66,13.66v5.72a2.08,2.08,0,0,1-2.22,2.22h-8.82a2.08,2.08,0,0,1-2.22-2.22v-3.1a4.21,4.21,0,0,0-4.45-4.44h-9.29a4.21,4.21,0,0,0-4.45,4.44v2.62c0,2.23.88,3.1,3.1,4l19.46,7.55c6.59,2.54,9.69,5.72,9.69,13.26v6.19c0,9.3-4.45,13.66-13.66,13.66h-19c-9.29,0-13.66-4.44-13.66-13.66V651.5a2.09,2.09,0,0,1,2.22-2.23h8.82a2.09,2.09,0,0,1,2.22,2.23v3.09a4.21,4.21,0,0,0,4.45,4.45h11a4.21,4.21,0,0,0,4.44-4.45Z" transform="translate(-199 -320)"/></g></svg>