<svg id="Layer_8" data-name="Layer 8" xmlns="http://www.w3.org/2000/svg" viewBox="0 0 426.59 426.59"><defs><style>.cls-1{fill:#d6d6d6;}.cls-2{fill:#ff3600;}.cls-3{fill:#646464;}</style></defs><title>quality</title><path class="cls-1" d="M413.44,218.92c-117.8,0-213.29,95.5-213.29,213.3s95.49,213.3,213.29,213.3,213.3-95.5,213.3-213.3S531.24,218.92,413.44,218.92Zm0,394.66A181.36,181.36,0,1,1,594.8,432.22,181.36,181.36,0,0,1,413.44,613.58Z" transform="translate(-200.15 -218.92)"/><path class="cls-2" d="M413.44,218.92v31.94a181.3,181.3,0,1,1-157.08,90.67l-27.66-16a212.22,212.22,0,0,0-28.55,106.66c0,117.8,95.49,213.3,213.29,213.3s213.3-95.5,213.3-213.3S531.24,218.92,413.44,218.92Z" transform="translate(-200.15 -218.92)"/><path class="cls-3" d="M309.41,440.64v.63a2.67,2.67,0,0,1-1.33,1.19,5.36,5.36,0,0,1-2.1.38,5.59,5.59,0,0,1-3.22-.94,6.09,6.09,0,0,1-2.15-2.62,9.47,9.47,0,0,1-.77-3.93v0a9.81,9.81,0,0,1,.84-4.24,5.87,5.87,0,0,1,2.44-2.67,7.68,7.68,0,0,1,3.86-.91,7.54,7.54,0,0,1,3.85.93,5.9,5.9,0,0,1,2.43,2.71,9.88,9.88,0,0,1,.84,4.27v0a13.49,13.49,0,0,1-.35,2.92,18.84,18.84,0,0,1-1,3.09l-.22.46c-.07.16-.14.32-.22.47l-5.45,10.95H303Zm.17-2.22a5,5,0,0,0,.92-3.21v0a4.73,4.73,0,0,0-.92-3.13,3.65,3.65,0,0,0-5.24,0,4.83,4.83,0,0,0-.92,3.15v0a5,5,0,0,0,.92,3.2,3.19,3.19,0,0,0,2.63,1.14A3.16,3.16,0,0,0,309.58,438.42Z" transform="translate(-200.15 -218.92)"/><path class="cls-3" d="M317.08,446.3l8.58-18.51h3.69L321,446.09h12.53v3.32H317.08Zm11-8h3.5v15.05h-3.5Z" transform="translate(-200.15 -218.92)"/><path class="cls-3" d="M336.68,435.08h8.22v3.24h-8.22Zm2.91,17.12a5.48,5.48,0,0,1-1-3.62v-18.8h3.58v18.84a1.71,1.71,0,0,0,.27,1,.88.88,0,0,0,.77.36h1.72v3.41h-2.07A4,4,0,0,1,339.59,452.2Z" transform="translate(-200.15 -218.92)"/><path class="cls-3" d="M349.83,427.77h3.58v25.56h-3.58Zm11.07,14.5a4.13,4.13,0,0,0-1-3,3.69,3.69,0,0,0-2.82-1.06,3.77,3.77,0,0,0-2.71.92,3.38,3.38,0,0,0-1,2.58l-.37-3.52a6.5,6.5,0,0,1,2.21-2.5,5.42,5.42,0,0,1,3-.89,5.68,5.68,0,0,1,4.6,1.94,8.37,8.37,0,0,1,1.63,5.5v11.07H360.9Z" transform="translate(-200.15 -218.92)"/><path class="cls-3" d="M380,427.77h3.59v25.56H380ZM381.8,440H390a3.79,3.79,0,0,0,2-.55,3.64,3.64,0,0,0,1.37-1.55,5.22,5.22,0,0,0,.48-2.3,5.31,5.31,0,0,0-.48-2.32,3.64,3.64,0,0,0-1.37-1.55,3.71,3.71,0,0,0-2-.56H381.8v-3.41h8.05a8.13,8.13,0,0,1,4,1,6.66,6.66,0,0,1,2.69,2.75,9.28,9.28,0,0,1,0,8.22,6.67,6.67,0,0,1-2.69,2.73,8.23,8.23,0,0,1-4,1H381.8Z" transform="translate(-200.15 -218.92)"/><path class="cls-3" d="M405.37,453.59l-1.79-.94a6.35,6.35,0,0,1-2.73-2.79,9.64,9.64,0,0,1-.94-4.44v-2.06a10.82,10.82,0,0,1,.9-4.62,6.45,6.45,0,0,1,2.63-2.92,8.1,8.1,0,0,1,4.15-1,6.6,6.6,0,0,1,3.9,1.14,7.16,7.16,0,0,1,2.47,3.31,14.09,14.09,0,0,1,.85,5.18v1.2h-12.3v-2.88h8.89a6.15,6.15,0,0,0-1.15-3.48,3.24,3.24,0,0,0-2.66-1.23,3.9,3.9,0,0,0-3.16,1.33,5.76,5.76,0,0,0-1.11,3.78v2.32a4.74,4.74,0,0,0,1.19,3.48,4.55,4.55,0,0,0,3.39,1.21,5.57,5.57,0,0,0,2.17-.44,6.13,6.13,0,0,0,1.91-1.23l2.36,2.36a9.93,9.93,0,0,1-3,2,8.61,8.61,0,0,1-3.4.71Z" transform="translate(-200.15 -218.92)"/><path class="cls-3" d="M419.73,435.08h3.59v18.25h-3.59Zm8.85,3.45a4.36,4.36,0,0,0-1.67-.3,3.58,3.58,0,0,0-2.65.94,3.52,3.52,0,0,0-.94,2.61l-.37-3.51a6.66,6.66,0,0,1,2.18-2.54,5.09,5.09,0,0,1,2.95-.91,6.66,6.66,0,0,1,2.26.36,5.19,5.19,0,0,1,1.77,1.06l-2.34,3.17A3,3,0,0,0,428.58,438.53Z" transform="translate(-200.15 -218.92)"/><path class="cls-3" d="M439.61,453.59l-1.76-.93a6.29,6.29,0,0,1-2.7-2.7,9.18,9.18,0,0,1-.93-4.29v-3a9,9,0,0,1,.93-4.24,6.29,6.29,0,0,1,2.7-2.68,9.18,9.18,0,0,1,4.26-.92,10.52,10.52,0,0,1,2.68.34,7.85,7.85,0,0,1,2.26,1,6.15,6.15,0,0,1,1.67,1.58l-2.58,2.32a5.27,5.27,0,0,0-1.81-1.35,5.15,5.15,0,0,0-2.17-.48,4.31,4.31,0,0,0-3.21,1.16,4.42,4.42,0,0,0-1.15,3.27v3a4.62,4.62,0,0,0,1.14,3.34,4.27,4.27,0,0,0,3.22,1.17,4.88,4.88,0,0,0,2.18-.51,5.41,5.41,0,0,0,1.8-1.44l2.58,2.5a6.27,6.27,0,0,1-1.69,1.55,7.82,7.82,0,0,1-2.26,1,10.37,10.37,0,0,1-2.66.33Z" transform="translate(-200.15 -218.92)"/><path class="cls-3" d="M457.61,453.59l-1.79-.94a6.4,6.4,0,0,1-2.73-2.79,9.64,9.64,0,0,1-.94-4.44v-2.06a10.82,10.82,0,0,1,.9-4.62,6.51,6.51,0,0,1,2.63-2.92,8.1,8.1,0,0,1,4.15-1,6.6,6.6,0,0,1,3.9,1.14,7.16,7.16,0,0,1,2.47,3.31,14.09,14.09,0,0,1,.85,5.18v1.2h-12.3v-2.88h8.89a6.15,6.15,0,0,0-1.15-3.48,3.24,3.24,0,0,0-2.66-1.23,3.9,3.9,0,0,0-3.16,1.33,5.76,5.76,0,0,0-1.11,3.78v2.32a4.78,4.78,0,0,0,1.19,3.48,4.56,4.56,0,0,0,3.4,1.21,5.56,5.56,0,0,0,2.16-.44,6.13,6.13,0,0,0,1.91-1.23l2.36,2.36a9.81,9.81,0,0,1-3,2,8.6,8.6,0,0,1-3.39.71Z" transform="translate(-200.15 -218.92)"/><path class="cls-3" d="M472,435.08h3.58v18.25H472Zm11.07,7.19a4.13,4.13,0,0,0-1-3,3.68,3.68,0,0,0-2.81-1.06,3.74,3.74,0,0,0-2.72.93,3.49,3.49,0,0,0-1,2.62l-.37-3.51a6.38,6.38,0,0,1,2.21-2.55,5.35,5.35,0,0,1,3-.9,5.68,5.68,0,0,1,4.6,1.94,8.37,8.37,0,0,1,1.63,5.5v11.07h-3.59Z" transform="translate(-200.15 -218.92)"/><path class="cls-3" d="M490.68,435.08h8.23v3.24h-8.23Zm2.91,17.12a5.48,5.48,0,0,1-1-3.62v-18.8h3.59v18.84a1.71,1.71,0,0,0,.26,1,.88.88,0,0,0,.77.36h1.73v3.41h-2.08A4,4,0,0,1,493.59,452.2Z" transform="translate(-200.15 -218.92)"/><path class="cls-3" d="M503.83,427.77h3.58v3.59h-3.58Zm0,7.31h3.58v18.25h-3.58Z" transform="translate(-200.15 -218.92)"/><path class="cls-3" d="M516.45,448.62a1.58,1.58,0,0,0,.29,1,1,1,0,0,0,.82.36h1.68v3.41h-2.11a4,4,0,0,1-3.15-1.27,5.18,5.18,0,0,1-1.12-3.57V427.77h3.59Z" transform="translate(-200.15 -218.92)"/><path class="cls-3" d="M528.23,453.59l-1.8-.94a6.45,6.45,0,0,1-2.73-2.79,9.64,9.64,0,0,1-.94-4.44v-2.06a10.82,10.82,0,0,1,.9-4.62,6.51,6.51,0,0,1,2.63-2.92,8.1,8.1,0,0,1,4.15-1,6.6,6.6,0,0,1,3.9,1.14,7.16,7.16,0,0,1,2.47,3.31,14.08,14.08,0,0,1,.86,5.18v1.2H525.36v-2.88h8.89a6.08,6.08,0,0,0-1.15-3.48,3.24,3.24,0,0,0-2.66-1.23,3.86,3.86,0,0,0-3.15,1.33,5.7,5.7,0,0,0-1.12,3.78v2.32a4.78,4.78,0,0,0,1.19,3.48,4.56,4.56,0,0,0,3.4,1.21,5.56,5.56,0,0,0,2.16-.44,6.13,6.13,0,0,0,1.91-1.23l2.36,2.36a9.81,9.81,0,0,1-3,2,8.6,8.6,0,0,1-3.39.71Z" transform="translate(-200.15 -218.92)"/><path class="cls-3" d="M380.65,398.51h-7.27V354.6L366,359.12V351.6l7.38-4.92h7.27Z" transform="translate(-200.15 -218.92)"/><path class="cls-3" d="M396.17,395.16q-3.76-3.89-3.76-10.84V360.76q0-7,3.78-10.85t11-3.87q7.28,0,11,3.85T422,360.76v23.56q0,7-3.78,10.86t-11,3.86Q399.94,399,396.17,395.16Zm16.72-5a8.36,8.36,0,0,0,1.84-5.8V360.76a8.36,8.36,0,0,0-1.82-5.79c-1.21-1.34-3.12-2-5.71-2s-4.49.67-5.7,2a8.36,8.36,0,0,0-1.82,5.79v23.56a8.31,8.31,0,0,0,1.84,5.8c1.22,1.34,3.12,2,5.68,2S411.67,391.46,412.89,390.12Z" transform="translate(-200.15 -218.92)"/><path class="cls-3" d="M459.46,353.17l-13.4,45.34h-7.74l13.4-44.91H438.54v7.45h-7.28V346.68h28.2Z" transform="translate(-200.15 -218.92)"/></svg>