<svg xmlns="http://www.w3.org/2000/svg" viewBox="0 0 563.12 243.92"><defs><style>.cls-1{fill:#d6d6d6;}.cls-2{fill:#ff3600;}.cls-3{fill:#646464;}</style></defs><title>price</title><g id="Layer_7" data-name="Layer 7"><rect class="cls-1" x="37.78" y="171.36" width="490.1" height="72.56"/><ellipse class="cls-1" cx="526.1" cy="207.64" rx="36.89" ry="36.28"/><ellipse class="cls-1" cx="37.78" cy="207.64" rx="36.89" ry="36.28"/><rect class="cls-1" x="37.78" y="171.36" width="490.1" height="72.56"/><ellipse class="cls-1" cx="37.78" cy="207.64" rx="36.89" ry="36.28"/><rect class="cls-2" x="37.78" y="171.36" width="25.84" height="72.56"/><ellipse class="cls-2" cx="63.62" cy="207.64" rx="36.89" ry="36.28"/><ellipse class="cls-2" cx="37.78" cy="207.64" rx="36.89" ry="36.28"/><rect class="cls-1" x="37.92" width="490.1" height="72.56"/><ellipse class="cls-1" cx="526.23" cy="36.28" rx="36.89" ry="36.28"/><ellipse class="cls-1" cx="37.92" cy="36.28" rx="36.89" ry="36.28"/><rect class="cls-1" x="37.92" width="490.1" height="72.56"/><ellipse class="cls-1" cx="37.92" cy="36.28" rx="36.89" ry="36.28"/><rect class="cls-2" x="37.92" width="488.32" height="72.56"/><ellipse class="cls-2" cx="526.23" cy="36.28" rx="36.89" ry="36.28"/><ellipse class="cls-2" cx="37.92" cy="36.28" rx="36.89" ry="36.28"/><rect class="cls-1" x="36.89" y="84.65" width="490.1" height="72.56"/><ellipse class="cls-1" cx="525.21" cy="120.93" rx="36.89" ry="36.28"/><ellipse class="cls-1" cx="36.89" cy="120.93" rx="36.89" ry="36.28"/><rect class="cls-1" x="36.89" y="84.65" width="490.1" height="72.56"/><ellipse class="cls-1" cx="36.89" cy="120.93" rx="36.89" ry="36.28"/><rect class="cls-2" x="36.89" y="84.65" width="25.84" height="72.56"/><ellipse class="cls-2" cx="62.73" cy="120.93" rx="36.89" ry="36.28"/><ellipse class="cls-2" cx="36.89" cy="120.93" rx="36.89" ry="36.28"/><path class="cls-3" d="M1221.67,1012.53l8.91-11.69a8.66,8.66,0,0,0,1.21-2.08,5.61,5.61,0,0,0,.43-2v0a3,3,0,0,0-.9-2.33,4.16,4.16,0,0,0-5.08.07,4.13,4.13,0,0,0-1.18,2.57v0h-3.71v0a9.44,9.44,0,0,1,1.3-3.69,6.47,6.47,0,0,1,2.52-2.33,7.58,7.58,0,0,1,3.57-.81,9.07,9.07,0,0,1,3.9.77,5.42,5.42,0,0,1,2.46,2.24,7,7,0,0,1,.84,3.54v0a7.53,7.53,0,0,1-.56,2.78,11.43,11.43,0,0,1-1.56,2.8l-7.4,9.89h9.66v3.36h-14.41Z" transform="translate(-1177.09 -796.45)"/><path class="cls-3" d="M1250.85,990.45h3.59v25.14h-3.59Zm1.85,12h8.17a3.92,3.92,0,0,0,2-.53,3.59,3.59,0,0,0,1.36-1.52,5.63,5.63,0,0,0,0-4.55,3.56,3.56,0,0,0-1.36-1.53,3.84,3.84,0,0,0-2-.55h-8.17v-3.35h8a8.19,8.19,0,0,1,4,1,6.71,6.71,0,0,1,2.7,2.71,9,9,0,0,1,0,8.08,6.72,6.72,0,0,1-2.7,2.69,8.29,8.29,0,0,1-4,1h-8Z" transform="translate(-1177.09 -796.45)"/><path class="cls-3" d="M1272,997.64h3.59v18H1272Zm8.84,3.39a4.3,4.3,0,0,0-1.67-.29,3.64,3.64,0,0,0-2.64.92,3.43,3.43,0,0,0-.94,2.57l-.37-3.46a6.68,6.68,0,0,1,2.18-2.5,5.22,5.22,0,0,1,3-.89,6.7,6.7,0,0,1,2.26.36,5.08,5.08,0,0,1,1.77,1l-2.34,3.12A3,3,0,0,0,1280.87,1001Z" transform="translate(-1177.09 -796.45)"/><path class="cls-3" d="M1290,1014.93a6.11,6.11,0,0,1-2.58-2.67,9.31,9.31,0,0,1-.88-4.23v-2.92a9.07,9.07,0,0,1,.88-4.17,6.12,6.12,0,0,1,2.58-2.65,9.51,9.51,0,0,1,8.12,0,6.12,6.12,0,0,1,2.58,2.65,9.07,9.07,0,0,1,.88,4.17v3a9.18,9.18,0,0,1-.88,4.2,6.17,6.17,0,0,1-2.58,2.65,9.42,9.42,0,0,1-8.12,0Zm7-3.6a4.75,4.75,0,0,0,1-3.25v-3a4.69,4.69,0,0,0-1-3.23,4.28,4.28,0,0,0-5.82,0,4.69,4.69,0,0,0-1,3.23v3a4.75,4.75,0,0,0,1,3.25,4.23,4.23,0,0,0,5.82,0Z" transform="translate(-1177.09 -796.45)"/><path class="cls-3" d="M1304.2,1019.53h2a.91.91,0,0,0,.77-.36,1.62,1.62,0,0,0,.27-1V997.64h3.59v20.49a5.05,5.05,0,0,1-1.12,3.51,4,4,0,0,1-3.15,1.24h-2.36Zm3-29.08h3.65V994h-3.65Z" transform="translate(-1177.09 -796.45)"/><path class="cls-3" d="M1321.25,1015.85l-1.79-.94a6.26,6.26,0,0,1-2.74-2.74,9.42,9.42,0,0,1-.94-4.36v-2a10.48,10.48,0,0,1,.91-4.55,6.38,6.38,0,0,1,2.63-2.87,8.2,8.2,0,0,1,4.15-1,6.67,6.67,0,0,1,3.9,1.13,7,7,0,0,1,2.47,3.25,13.65,13.65,0,0,1,.85,5.1V1008h-12.3v-2.83h8.89a6,6,0,0,0-1.15-3.42,3.26,3.26,0,0,0-2.66-1.22,3.91,3.91,0,0,0-3.16,1.32,5.57,5.57,0,0,0-1.12,3.71v2.29a4.17,4.17,0,0,0,4.59,4.61,5.66,5.66,0,0,0,2.16-.43,6.19,6.19,0,0,0,1.92-1.21l2.36,2.32a10.13,10.13,0,0,1-3,2,8.87,8.87,0,0,1-3.39.7Z" transform="translate(-1177.09 -796.45)"/><path class="cls-3" d="M1340.48,1015.85l-1.77-.92a6.28,6.28,0,0,1-2.69-2.66,8.89,8.89,0,0,1-.94-4.22v-3a8.67,8.67,0,0,1,.94-4.16,6.23,6.23,0,0,1,2.69-2.64,9.32,9.32,0,0,1,4.27-.91,10.52,10.52,0,0,1,2.68.34,8.1,8.1,0,0,1,2.26,1,6.19,6.19,0,0,1,1.67,1.55l-2.59,2.29a5.28,5.28,0,0,0-1.81-1.34,5.21,5.21,0,0,0-2.16-.46,4,4,0,0,0-4.36,4.35v3a4.5,4.5,0,0,0,1.13,3.28,4.3,4.3,0,0,0,3.23,1.16,4.87,4.87,0,0,0,2.18-.5,5.22,5.22,0,0,0,1.79-1.42l2.59,2.46a6.36,6.36,0,0,1-1.69,1.53,8.06,8.06,0,0,1-2.26,1,10.42,10.42,0,0,1-2.66.33Z" transform="translate(-1177.09 -796.45)"/><path class="cls-3" d="M1352.14,997.64h8.22v3.18h-8.22Zm2.9,16.83a5.35,5.35,0,0,1-1-3.55v-18.5h3.58V1011a1.62,1.62,0,0,0,.27,1,.88.88,0,0,0,.77.36h1.72v3.35h-2.07A4.06,4.06,0,0,1,1355,1014.47Z" transform="translate(-1177.09 -796.45)"/><path class="cls-3" d="M1370.12,1015.85l-1.42-.31a11,11,0,0,1-2.64-.94,10.25,10.25,0,0,1-2.27-1.55l2.13-2.58a12,12,0,0,0,2.93,1.66,8.12,8.12,0,0,0,2.89.55,6.18,6.18,0,0,0,3.19-.65,2.14,2.14,0,0,0,1.06-1.94,1.51,1.51,0,0,0-.58-1.3,3.34,3.34,0,0,0-1.44-.58c-.58-.09-1.39-.18-2.43-.26h-.3l-.3,0h-.28a14.1,14.1,0,0,1-3-.51,4,4,0,0,1-2.05-1.39,4.53,4.53,0,0,1-.82-2.92,5.9,5.9,0,0,1,.79-3.16,4.9,4.9,0,0,1,2.36-1.9,10.55,10.55,0,0,1,3.92-.63,13.92,13.92,0,0,1,2.71.26,12.46,12.46,0,0,1,2.47.77,12.24,12.24,0,0,1,2.27,1.29l-2.16,2.58a11.88,11.88,0,0,0-2.7-1.3,8.27,8.27,0,0,0-2.59-.43,4.94,4.94,0,0,0-2.74.61,2.07,2.07,0,0,0-.92,1.84,1.25,1.25,0,0,0,.52,1.09,3.23,3.23,0,0,0,1.31.49c.53.08,1.28.14,2.25.2l.22,0,.24,0h.21a16,16,0,0,1,3.26.51,4.36,4.36,0,0,1,2.26,1.5,5,5,0,0,1,.91,3.25,5.72,5.72,0,0,1-.84,3.21,5.14,5.14,0,0,1-2.54,1.91,12.33,12.33,0,0,1-4.26.64Z" transform="translate(-1177.09 -796.45)"/><path class="cls-3" d="M1399.25,1015.85l-1.53-.41a10.67,10.67,0,0,1-2.84-1.21,12.34,12.34,0,0,1-2.49-2l2.41-2.87a8.64,8.64,0,0,0,2.8,2.25,7.55,7.55,0,0,0,3.35.75,6,6,0,0,0,3.73-1,3.46,3.46,0,0,0,1.23-2.91v0a3,3,0,0,0-.6-2,3.73,3.73,0,0,0-1.55-1.09,15,15,0,0,0-2.42-.64h-.1l-.1,0-.18,0-.19,0a23.63,23.63,0,0,1-3.81-1,5.4,5.4,0,0,1-2.5-1.94,6.68,6.68,0,0,1-1-4v0a8.52,8.52,0,0,1,.93-4.19,5.83,5.83,0,0,1,2.78-2.51,11.31,11.31,0,0,1,4.65-.84,12,12,0,0,1,4.82,1,16.27,16.27,0,0,1,2.34,1.27l-2.16,2.93a11.07,11.07,0,0,0-2.54-1.29,7.68,7.68,0,0,0-2.46-.43,5.45,5.45,0,0,0-3.48,1,3.42,3.42,0,0,0-1.16,2.82v0a2.94,2.94,0,0,0,.67,2,4,4,0,0,0,1.68,1.08,27.35,27.35,0,0,0,2.77.73l.14,0,.16,0,.16,0,.17,0a17,17,0,0,1,3.47,1.09,5.6,5.6,0,0,1,2.33,2.09,7.1,7.1,0,0,1,.93,3.9v0a7.83,7.83,0,0,1-1,4,5.88,5.88,0,0,1-2.89,2.42,12.56,12.56,0,0,1-4.83.81Zm.24-28.46h3.59v3.94h-3.59Zm0,27.09h3.59v4.17h-3.59Z" transform="translate(-1177.09 -796.45)"/><path class="cls-3" d="M1413.82,1012.53l8.91-11.69a8.29,8.29,0,0,0,1.2-2.08,5.4,5.4,0,0,0,.43-2v0a3,3,0,0,0-.89-2.33,4.16,4.16,0,0,0-5.08.07,4.08,4.08,0,0,0-1.18,2.57v0h-3.71v0a9.28,9.28,0,0,1,1.29-3.69,6.43,6.43,0,0,1,2.53-2.33,7.57,7.57,0,0,1,3.56-.81,9.09,9.09,0,0,1,3.91.77,5.52,5.52,0,0,1,2.46,2.24,7,7,0,0,1,.84,3.54v0a7.74,7.74,0,0,1-.56,2.78,11.81,11.81,0,0,1-1.57,2.8l-7.4,9.89h9.67v3.36h-14.41Z" transform="translate(-1177.09 -796.45)"/><path class="cls-3" d="M1434.66,1014a7.15,7.15,0,0,1-1.86-5.25V997.28a7.1,7.1,0,0,1,1.87-5.26,8.81,8.81,0,0,1,10.87,0,7.17,7.17,0,0,1,1.85,5.27v11.43a7.14,7.14,0,0,1-1.86,5.26,8.78,8.78,0,0,1-10.87,0Zm8.24-2.44a4,4,0,0,0,.91-2.81V997.28a4,4,0,0,0-.9-2.81,4.53,4.53,0,0,0-5.63,0,4,4,0,0,0-.89,2.81v11.43a4,4,0,0,0,.9,2.81,4.54,4.54,0,0,0,5.61,0Z" transform="translate(-1177.09 -796.45)"/><path class="cls-3" d="M1452.84,990.45h3.59v25.14h-3.59Zm1.55,18.33,9.38-11.14H1468L1454.16,1013Zm4.23-3.55,2.31-2.35,8,12.71H1465Z" transform="translate(-1177.09 -796.45)"/><path class="cls-3" d="M1483.69,1004.9v3.36h-11.81v-3.36Z" transform="translate(-1177.09 -796.45)"/><path class="cls-3" d="M1494.76,1015.85l-1.52-.41a10.67,10.67,0,0,1-2.84-1.21,12.34,12.34,0,0,1-2.49-2l2.41-2.87a8.64,8.64,0,0,0,2.8,2.25,7.55,7.55,0,0,0,3.35.75,6,6,0,0,0,3.73-1,3.46,3.46,0,0,0,1.23-2.91v0a3,3,0,0,0-.6-2,3.73,3.73,0,0,0-1.55-1.09,15,15,0,0,0-2.42-.64h-.1l-.1,0-.18,0-.19,0a23.63,23.63,0,0,1-3.81-1,5.35,5.35,0,0,1-2.5-1.94,6.68,6.68,0,0,1-1-4v0a8.52,8.52,0,0,1,.93-4.19,5.83,5.83,0,0,1,2.78-2.51,11.31,11.31,0,0,1,4.65-.84,12.47,12.47,0,0,1,2.44.25,12.64,12.64,0,0,1,2.38.76,16.27,16.27,0,0,1,2.34,1.27l-2.16,2.93a11.07,11.07,0,0,0-2.54-1.29,7.68,7.68,0,0,0-2.46-.43,5.45,5.45,0,0,0-3.48,1,3.42,3.42,0,0,0-1.16,2.82v0a2.94,2.94,0,0,0,.67,2,4,4,0,0,0,1.68,1.08,27.35,27.35,0,0,0,2.77.73l.14,0,.16,0,.16,0,.17,0a17,17,0,0,1,3.47,1.09,5.6,5.6,0,0,1,2.33,2.09,7.1,7.1,0,0,1,.93,3.9v0a7.83,7.83,0,0,1-1,4,5.87,5.87,0,0,1-2.9,2.42,12.47,12.47,0,0,1-4.82.81Zm.25-28.46h3.59v3.94H1495Zm0,27.09h3.59v4.17H1495Z" transform="translate(-1177.09 -796.45)"/><path class="cls-3" d="M1513.42,1015.1a6.11,6.11,0,0,1-2.44-2.16,8.42,8.42,0,0,1-1.26-3.4v0h3.59v0a3.25,3.25,0,0,0,1.12,2.15,3.72,3.72,0,0,0,2.43.77,3.26,3.26,0,0,0,2.66-1.13,4.85,4.85,0,0,0,.94-3.19V1006a4.84,4.84,0,0,0-.94-3.18,3.26,3.26,0,0,0-2.66-1.13,3.46,3.46,0,0,0-1.79.52,4.94,4.94,0,0,0-1.51,1.45h-3.27V990.45h13v3.35h-9.44v5.66a5,5,0,0,1,1.5-.83,4.88,4.88,0,0,1,1.68-.3,7.51,7.51,0,0,1,3.79.9,5.77,5.77,0,0,1,2.39,2.63,9.6,9.6,0,0,1,.82,4.17v2.11a9.44,9.44,0,0,1-.84,4.16,6,6,0,0,1-2.46,2.64,7.91,7.91,0,0,1-3.89.91A7.63,7.63,0,0,1,1513.42,1015.1Z" transform="translate(-1177.09 -796.45)"/><path class="cls-3" d="M1531.18,1014a7.15,7.15,0,0,1-1.86-5.25V997.28a7.1,7.1,0,0,1,1.87-5.26,8.81,8.81,0,0,1,10.87,0,7.17,7.17,0,0,1,1.85,5.27v11.43a7.14,7.14,0,0,1-1.86,5.26,8.78,8.78,0,0,1-10.87,0Zm8.24-2.44a4,4,0,0,0,.91-2.81V997.28a4,4,0,0,0-.9-2.81,4.52,4.52,0,0,0-5.62,0,4,4,0,0,0-.9,2.81v11.43a4,4,0,0,0,.9,2.81,4.54,4.54,0,0,0,5.61,0Z" transform="translate(-1177.09 -796.45)"/><path class="cls-3" d="M1549.36,990.45H1553v25.14h-3.59Zm1.55,18.33,9.39-11.14h4.21L1550.68,1013Zm4.24-3.55,2.3-2.35,8,12.71h-3.9Z" transform="translate(-1177.09 -796.45)"/><path class="cls-3" d="M1223.91,926.26a5.83,5.83,0,0,1-2.44-2.59,9.38,9.38,0,0,1-.83-4.11v0a14.09,14.09,0,0,1,.33-2.94,17.68,17.68,0,0,1,1-3c.07-.17.15-.34.23-.51l.24-.49,5.56-10.83h3.87l-6.53,12.54,0-.62a3,3,0,0,1,1.29-1.27,4.08,4.08,0,0,1,2-.45,6.32,6.32,0,0,1,3.41.89,5.55,5.55,0,0,1,2.17,2.56,10.16,10.16,0,0,1,.73,4.06h0a9.4,9.4,0,0,1-.83,4.15,5.82,5.82,0,0,1-2.44,2.63,8.75,8.75,0,0,1-7.71,0Zm6.48-3.54a4.31,4.31,0,0,0,.92-3v0a4.9,4.9,0,0,0-1-3.26,3.41,3.41,0,0,0-2.76-1.15,3,3,0,0,0-2.48,1.16,5.34,5.34,0,0,0-.88,3.27v0a4.23,4.23,0,0,0,.93,2.94,3.83,3.83,0,0,0,5.24,0Z" transform="translate(-1177.09 -796.45)"/><path class="cls-3" d="M1249.84,901.75h3.58v25.14h-3.58Zm1.84,12h8.18a3.78,3.78,0,0,0,2-.54,3.62,3.62,0,0,0,1.37-1.52,5.63,5.63,0,0,0,0-4.55,3.63,3.63,0,0,0-3.4-2.07h-8.18v-3.36h8a8.2,8.2,0,0,1,4,1,6.77,6.77,0,0,1,2.7,2.71,9.07,9.07,0,0,1,0,8.08,6.66,6.66,0,0,1-2.7,2.69,8.3,8.3,0,0,1-4,.95h-8Z" transform="translate(-1177.09 -796.45)"/><path class="cls-3" d="M1271,909h3.58v17.94H1271Zm8.84,3.38a4.53,4.53,0,0,0-1.67-.29,3.61,3.61,0,0,0-2.65.93,3.44,3.44,0,0,0-.94,2.56l-.37-3.45a6.61,6.61,0,0,1,2.18-2.5,5.18,5.18,0,0,1,3-.89,7,7,0,0,1,2.26.35,5.12,5.12,0,0,1,1.76,1.05l-2.34,3.11A3,3,0,0,0,1279.86,912.33Z" transform="translate(-1177.09 -796.45)"/><path class="cls-3" d="M1289,926.23a6.09,6.09,0,0,1-2.57-2.67,9.29,9.29,0,0,1-.89-4.22v-2.93a9.1,9.1,0,0,1,.89-4.17,6.09,6.09,0,0,1,2.57-2.65,9.63,9.63,0,0,1,8.13,0,6.09,6.09,0,0,1,2.57,2.65,9.1,9.1,0,0,1,.89,4.17v3a9.16,9.16,0,0,1-.89,4.19,6.09,6.09,0,0,1-2.57,2.65,9.44,9.44,0,0,1-8.13,0Zm7-3.59a4.71,4.71,0,0,0,1-3.25v-3a4.64,4.64,0,0,0-1-3.23,4.27,4.27,0,0,0-5.81,0,4.64,4.64,0,0,0-1,3.23v3a4.71,4.71,0,0,0,1,3.25,4.22,4.22,0,0,0,5.81,0Z" transform="translate(-1177.09 -796.45)"/><path class="cls-3" d="M1303.19,930.83h2a.91.91,0,0,0,.76-.35,1.6,1.6,0,0,0,.28-1V909h3.58v20.48a5.1,5.1,0,0,1-1.11,3.51,4,4,0,0,1-3.16,1.25h-2.35Zm3-29.08h3.66v3.53h-3.66Z" transform="translate(-1177.09 -796.45)"/><path class="cls-3" d="M1320.24,927.15l-1.8-.93a6.39,6.39,0,0,1-2.73-2.74,9.34,9.34,0,0,1-.94-4.37v-2a10.49,10.49,0,0,1,.9-4.55,6.49,6.49,0,0,1,2.63-2.87,8.3,8.3,0,0,1,4.15-1,6.64,6.64,0,0,1,3.9,1.12,7,7,0,0,1,2.47,3.25,13.67,13.67,0,0,1,.86,5.1v1.18h-12.31V916.5h8.9a5.94,5.94,0,0,0-1.16-3.41,3.23,3.23,0,0,0-2.66-1.22,3.91,3.91,0,0,0-3.15,1.31,5.57,5.57,0,0,0-1.12,3.72v2.28a4.18,4.18,0,0,0,4.59,4.62,5.75,5.75,0,0,0,2.16-.44,6.23,6.23,0,0,0,1.92-1.21l2.35,2.32a10,10,0,0,1-3,2,8.72,8.72,0,0,1-3.39.7Z" transform="translate(-1177.09 -796.45)"/><path class="cls-3" d="M1339.47,927.15l-1.77-.92a6.2,6.2,0,0,1-2.7-2.66,8.86,8.86,0,0,1-.93-4.22v-3a8.68,8.68,0,0,1,.93-4.17,6.26,6.26,0,0,1,2.7-2.64,9.31,9.31,0,0,1,4.26-.9,10.47,10.47,0,0,1,2.68.33,8.1,8.1,0,0,1,2.26,1,6.09,6.09,0,0,1,1.67,1.56l-2.58,2.28a5.34,5.34,0,0,0-1.81-1.33A5.22,5.22,0,0,0,1342,912a4,4,0,0,0-4.36,4.36v3a4.49,4.49,0,0,0,1.13,3.29,4.33,4.33,0,0,0,3.23,1.16,4.91,4.91,0,0,0,2.18-.51,5.29,5.29,0,0,0,1.79-1.41l2.58,2.45a6.21,6.21,0,0,1-1.69,1.53,8,8,0,0,1-2.25,1,10.5,10.5,0,0,1-2.67.33Z" transform="translate(-1177.09 -796.45)"/><path class="cls-3" d="M1351.12,909h8.23v3.18h-8.23Zm2.91,16.83a5.34,5.34,0,0,1-1-3.56V903.73h3.59v18.53a1.71,1.71,0,0,0,.26,1,.93.93,0,0,0,.78.35h1.72V927h-2.08A4.05,4.05,0,0,1,1354,925.78Z" transform="translate(-1177.09 -796.45)"/><path class="cls-3" d="M1369.1,927.15l-1.41-.31a11.55,11.55,0,0,1-2.65-.93,10.59,10.59,0,0,1-2.26-1.56l2.12-2.58a12.2,12.2,0,0,0,2.94,1.66,8,8,0,0,0,2.88.56,6.26,6.26,0,0,0,3.19-.65,2.12,2.12,0,0,0,1.06-2,1.49,1.49,0,0,0-.58-1.29,3.24,3.24,0,0,0-1.44-.58c-.57-.1-1.38-.19-2.42-.27h-.3a1.39,1.39,0,0,1-.3,0h-.28a14.09,14.09,0,0,1-3-.51,4.12,4.12,0,0,1-2.05-1.39,4.61,4.61,0,0,1-.81-2.92,5.85,5.85,0,0,1,.79-3.17,4.8,4.8,0,0,1,2.35-1.89,10.59,10.59,0,0,1,3.92-.63,13.29,13.29,0,0,1,2.72.26,12.22,12.22,0,0,1,2.47.77,12.51,12.51,0,0,1,2.27,1.28l-2.17,2.58a12,12,0,0,0-2.69-1.3,8.63,8.63,0,0,0-2.6-.43,5.05,5.05,0,0,0-2.74.61,2.08,2.08,0,0,0-.91,1.85,1.22,1.22,0,0,0,.52,1.08,2.92,2.92,0,0,0,1.31.49q.78.12,2.25.21h.22l.23,0h.11l.1,0a15.9,15.9,0,0,1,3.26.5,4.36,4.36,0,0,1,2.26,1.5,5.05,5.05,0,0,1,.92,3.25,5.64,5.64,0,0,1-.85,3.21,5.08,5.08,0,0,1-2.54,1.91,12.1,12.1,0,0,1-4.26.64Z" transform="translate(-1177.09 -796.45)"/><path class="cls-3" d="M1398.23,927.15l-1.52-.41a10.87,10.87,0,0,1-2.85-1.21,11.89,11.89,0,0,1-2.48-2l2.4-2.87a8.85,8.85,0,0,0,2.81,2.26,7.52,7.52,0,0,0,3.35.75,6,6,0,0,0,3.72-1,3.46,3.46,0,0,0,1.23-2.91v0a3,3,0,0,0-.6-2,3.53,3.53,0,0,0-1.54-1.09,14,14,0,0,0-2.43-.64l-.09,0a.18.18,0,0,1-.1,0l-.19,0-.18,0a23.76,23.76,0,0,1-3.81-1,5.39,5.39,0,0,1-2.5-2,6.66,6.66,0,0,1-1-4v0a8.52,8.52,0,0,1,.93-4.19,5.85,5.85,0,0,1,2.79-2.51,11.48,11.48,0,0,1,4.65-.83,11.65,11.65,0,0,1,2.43.25,11.84,11.84,0,0,1,2.39.76,15.26,15.26,0,0,1,2.33,1.27l-2.16,2.92a10.87,10.87,0,0,0-2.54-1.29,7.56,7.56,0,0,0-2.45-.42,5.41,5.41,0,0,0-3.48.94,3.44,3.44,0,0,0-1.16,2.83h0a2.87,2.87,0,0,0,.67,2,3.88,3.88,0,0,0,1.68,1.08,22.64,22.64,0,0,0,2.76.73l.14,0,.16,0,.17,0,.17,0a16.93,16.93,0,0,1,3.47,1.1,5.51,5.51,0,0,1,2.33,2.08,7.14,7.14,0,0,1,.93,3.91v0a7.75,7.75,0,0,1-1,4.06,5.94,5.94,0,0,1-2.89,2.42,12.67,12.67,0,0,1-4.82.8Zm.25-28.46h3.58v3.95h-3.58Zm0,27.09h3.58V930h-3.58Z" transform="translate(-1177.09 -796.45)"/><path class="cls-3" d="M1416.89,926.41a6.2,6.2,0,0,1-2.44-2.16,8.46,8.46,0,0,1-1.26-3.41v0h3.59v0a3.21,3.21,0,0,0,1.12,2.15,3.7,3.7,0,0,0,2.43.77,3.29,3.29,0,0,0,2.66-1.13,4.84,4.84,0,0,0,.94-3.19v-2.11a4.8,4.8,0,0,0-.94-3.17,3.26,3.26,0,0,0-2.66-1.13,3.51,3.51,0,0,0-1.8.51A5.22,5.22,0,0,0,1417,915h-3.27V901.75h13v3.36h-9.44v5.65a5.05,5.05,0,0,1,1.49-.83,5.18,5.18,0,0,1,1.69-.29,7.51,7.51,0,0,1,3.79.9,5.8,5.8,0,0,1,2.39,2.62,9.81,9.81,0,0,1,.82,4.17v2.11a9.51,9.51,0,0,1-.85,4.17,5.86,5.86,0,0,1-2.46,2.63,8.55,8.55,0,0,1-7.32.17Z" transform="translate(-1177.09 -796.45)"/><path class="cls-3" d="M1433,901.75h3.59v25.14H1433Zm1.55,18.33L1443.9,909h4.22l-13.84,15.31Zm4.24-3.54,2.3-2.36,8,12.71h-3.9Z" transform="translate(-1177.09 -796.45)"/><path class="cls-3" d="M1463.81,916.21v3.35H1452v-3.35Z" transform="translate(-1177.09 -796.45)"/><path class="cls-3" d="M1474.89,927.15l-1.52-.41a10.73,10.73,0,0,1-2.85-1.21,12.21,12.21,0,0,1-2.49-2l2.41-2.87a8.85,8.85,0,0,0,2.81,2.26,7.51,7.51,0,0,0,3.34.75,6,6,0,0,0,3.73-1,3.46,3.46,0,0,0,1.23-2.91v0a3,3,0,0,0-.6-2,3.58,3.58,0,0,0-1.54-1.09,14.45,14.45,0,0,0-2.43-.64l-.1,0a.15.15,0,0,1-.09,0l-.19,0-.18,0a24.2,24.2,0,0,1-3.82-1,5.41,5.41,0,0,1-2.49-2,6.66,6.66,0,0,1-1-4v0a8.52,8.52,0,0,1,.93-4.19,5.85,5.85,0,0,1,2.79-2.51,11.42,11.42,0,0,1,4.65-.83,12,12,0,0,1,4.81,1,14.89,14.89,0,0,1,2.34,1.27l-2.16,2.92a10.87,10.87,0,0,0-2.54-1.29,7.6,7.6,0,0,0-2.45-.42,5.41,5.41,0,0,0-3.48.94,3.41,3.41,0,0,0-1.16,2.83h0a2.92,2.92,0,0,0,.66,2,4,4,0,0,0,1.68,1.08,23.4,23.4,0,0,0,2.77.73l.14,0,.16,0,.17,0,.16,0a17,17,0,0,1,3.48,1.1,5.57,5.57,0,0,1,2.33,2.08,7.14,7.14,0,0,1,.93,3.91v0a7.75,7.75,0,0,1-1,4.06,5.94,5.94,0,0,1-2.89,2.42,12.69,12.69,0,0,1-4.83.8Zm.24-28.46h3.59v3.95h-3.59Zm0,27.09h3.59V930h-3.59Z" transform="translate(-1177.09 -796.45)"/><path class="cls-3" d="M1489.46,923.83l8.91-11.69a8.47,8.47,0,0,0,1.21-2.08,5.6,5.6,0,0,0,.43-2v0a3,3,0,0,0-.9-2.33,3.64,3.64,0,0,0-2.55-.83,3.54,3.54,0,0,0-2.53.91,4.1,4.1,0,0,0-1.18,2.56v0h-3.71v0a9.44,9.44,0,0,1,1.3-3.69,6.47,6.47,0,0,1,2.52-2.33,7.58,7.58,0,0,1,3.57-.8,9.07,9.07,0,0,1,3.9.76,5.47,5.47,0,0,1,2.46,2.24,7,7,0,0,1,.84,3.55h0a7.62,7.62,0,0,1-.56,2.79,11.61,11.61,0,0,1-1.56,2.8l-7.4,9.89h9.67v3.35h-14.42Z" transform="translate(-1177.09 -796.45)"/><path class="cls-3" d="M1510.3,925.27a7.17,7.17,0,0,1-1.85-5.26V908.58a7.14,7.14,0,0,1,1.86-5.26,8.81,8.81,0,0,1,10.87,0,7.15,7.15,0,0,1,1.86,5.27V920a7.14,7.14,0,0,1-1.87,5.26,8.8,8.8,0,0,1-10.87,0Zm8.24-2.45a4,4,0,0,0,.91-2.81V908.58a4,4,0,0,0-.9-2.81,4.56,4.56,0,0,0-5.62,0,4,4,0,0,0-.9,2.81V920a4,4,0,0,0,.91,2.81,4.49,4.49,0,0,0,5.6,0Z" transform="translate(-1177.09 -796.45)"/><path class="cls-3" d="M1528.48,901.75h3.59v25.14h-3.59Zm1.55,18.33,9.39-11.13h4.22l-13.84,15.31Zm4.24-3.54,2.3-2.36,8,12.71h-3.9Z" transform="translate(-1177.09 -796.45)"/><path class="cls-3" d="M1228.36,842.24h-3.58v-21.3l-3.64,2.2v-3.65l3.64-2.39h3.58Z" transform="translate(-1177.09 -796.45)"/><path class="cls-3" d="M1240.33,842.24h-3.58v-21.3l-3.64,2.2v-3.65l3.64-2.39h3.58Z" transform="translate(-1177.09 -796.45)"/><path class="cls-3" d="M1249.83,841.75a6.11,6.11,0,0,1-2.44-2.16,8.42,8.42,0,0,1-1.26-3.4v0h3.59v0a3.25,3.25,0,0,0,1.12,2.15,3.7,3.7,0,0,0,2.43.77,3.26,3.26,0,0,0,2.66-1.13,4.85,4.85,0,0,0,.94-3.19v-2.11a4.8,4.8,0,0,0-.94-3.17,3.23,3.23,0,0,0-2.66-1.13,3.45,3.45,0,0,0-1.79.51,5,5,0,0,0-1.52,1.46h-3.26V817.1h13v3.36h-9.44v5.65a5.11,5.11,0,0,1,1.5-.83,4.87,4.87,0,0,1,1.68-.29,7.51,7.51,0,0,1,3.79.9,5.7,5.7,0,0,1,2.39,2.62,9.63,9.63,0,0,1,.82,4.17v2.11a9.51,9.51,0,0,1-.84,4.17,5.94,5.94,0,0,1-2.47,2.63,7.73,7.73,0,0,1-3.88.91A7.6,7.6,0,0,1,1249.83,841.75Z" transform="translate(-1177.09 -796.45)"/><path class="cls-3" d="M1275.93,817.1h3.58v25.14h-3.58Zm1.84,12H1286a3.84,3.84,0,0,0,2-.54,3.59,3.59,0,0,0,1.36-1.52,5.63,5.63,0,0,0,0-4.55A3.68,3.68,0,0,0,1288,821a3.84,3.84,0,0,0-2-.54h-8.18V817.1h8a8.2,8.2,0,0,1,4,1,6.71,6.71,0,0,1,2.7,2.71,9,9,0,0,1,0,8.08,6.72,6.72,0,0,1-2.7,2.69,8.3,8.3,0,0,1-4,1h-8Z" transform="translate(-1177.09 -796.45)"/><path class="cls-3" d="M1297.11,824.29h3.59v18h-3.59Zm8.84,3.39a4.53,4.53,0,0,0-1.67-.29,3.61,3.61,0,0,0-2.64.92,3.44,3.44,0,0,0-.94,2.57l-.37-3.46a6.57,6.57,0,0,1,2.18-2.49,5.15,5.15,0,0,1,3-.89,6.74,6.74,0,0,1,2.26.35,5,5,0,0,1,1.76,1.05l-2.33,3.11A3.1,3.1,0,0,0,1306,827.68Z" transform="translate(-1177.09 -796.45)"/><path class="cls-3" d="M1315.06,841.58a6.06,6.06,0,0,1-2.58-2.67,9.31,9.31,0,0,1-.89-4.23v-2.92a9.1,9.1,0,0,1,.89-4.17,6.06,6.06,0,0,1,2.58-2.65,9.61,9.61,0,0,1,8.12,0,6.09,6.09,0,0,1,2.57,2.65,9.1,9.1,0,0,1,.89,4.17v3a9.16,9.16,0,0,1-.89,4.19,6.09,6.09,0,0,1-2.57,2.65,9.42,9.42,0,0,1-8.12,0Zm7-3.59a4.78,4.78,0,0,0,1-3.25v-3a4.69,4.69,0,0,0-1-3.23,4.28,4.28,0,0,0-5.82,0,4.64,4.64,0,0,0-1,3.23v3a4.73,4.73,0,0,0,1,3.25,4.26,4.26,0,0,0,5.82,0Z" transform="translate(-1177.09 -796.45)"/><path class="cls-3" d="M1329.28,846.18h2a.94.94,0,0,0,.77-.35,1.66,1.66,0,0,0,.27-1V824.29h3.58v20.49a5.1,5.1,0,0,1-1.11,3.51,4,4,0,0,1-3.16,1.24h-2.35Zm3-29.08h3.66v3.53h-3.66Z" transform="translate(-1177.09 -796.45)"/><path class="cls-3" d="M1346.33,842.5l-1.79-.93a6.36,6.36,0,0,1-2.74-2.74,9.34,9.34,0,0,1-.94-4.37v-2a10.34,10.34,0,0,1,.91-4.55,6.42,6.42,0,0,1,2.62-2.87,8.22,8.22,0,0,1,4.15-1,6.67,6.67,0,0,1,3.91,1.12,7.05,7.05,0,0,1,2.47,3.25,13.89,13.89,0,0,1,.85,5.1v1.17h-12.31v-2.83h8.9a6,6,0,0,0-1.15-3.41,3.25,3.25,0,0,0-2.67-1.22,3.88,3.88,0,0,0-3.15,1.31,5.57,5.57,0,0,0-1.12,3.72v2.28a4.6,4.6,0,0,0,1.2,3.42,4.55,4.55,0,0,0,3.39,1.19,5.66,5.66,0,0,0,2.16-.43,6.19,6.19,0,0,0,1.92-1.21l2.35,2.32a10,10,0,0,1-3,2,8.69,8.69,0,0,1-3.39.7Z" transform="translate(-1177.09 -796.45)"/><path class="cls-3" d="M1365.56,842.5l-1.77-.92a6.25,6.25,0,0,1-2.7-2.66,8.86,8.86,0,0,1-.93-4.22v-3a8.68,8.68,0,0,1,.93-4.17,6.26,6.26,0,0,1,2.7-2.64,9.31,9.31,0,0,1,4.26-.9,10.6,10.6,0,0,1,2.69.33,8,8,0,0,1,2.25,1,5.94,5.94,0,0,1,1.67,1.56l-2.58,2.28a5.34,5.34,0,0,0-1.81-1.33,5.07,5.07,0,0,0-2.16-.47,4,4,0,0,0-4.36,4.36v3a4.54,4.54,0,0,0,1.13,3.29,4.32,4.32,0,0,0,3.23,1.15,4.87,4.87,0,0,0,2.18-.5,5.19,5.19,0,0,0,1.79-1.41l2.58,2.45a6.32,6.32,0,0,1-1.68,1.53,8.06,8.06,0,0,1-2.26,1,10.5,10.5,0,0,1-2.67.33Z" transform="translate(-1177.09 -796.45)"/><path class="cls-3" d="M1377.21,824.29h8.23v3.19h-8.23Zm2.91,16.83a5.35,5.35,0,0,1-1-3.55v-18.5h3.59v18.54a1.73,1.73,0,0,0,.26,1,.93.93,0,0,0,.78.35h1.72v3.36h-2.07A4,4,0,0,1,1380.12,841.12Z" transform="translate(-1177.09 -796.45)"/><path class="cls-3" d="M1395.2,842.5l-1.42-.31a11.27,11.27,0,0,1-2.65-.94,10.19,10.19,0,0,1-2.26-1.55l2.12-2.58a12.2,12.2,0,0,0,2.94,1.66,8,8,0,0,0,2.88.55,6.27,6.27,0,0,0,3.19-.64,2.14,2.14,0,0,0,1.07-2,1.52,1.52,0,0,0-.58-1.29,3.21,3.21,0,0,0-1.45-.58c-.57-.1-1.38-.19-2.42-.27h-.3a2.77,2.77,0,0,1-.3,0h-.28a15.61,15.61,0,0,1-3-.51,4,4,0,0,1-2-1.4,4.53,4.53,0,0,1-.82-2.92,5.83,5.83,0,0,1,.79-3.16,4.78,4.78,0,0,1,2.36-1.89,10.55,10.55,0,0,1,3.92-.63,14,14,0,0,1,2.71.25,12.67,12.67,0,0,1,2.47.77,12.24,12.24,0,0,1,2.27,1.29l-2.16,2.58a12.3,12.3,0,0,0-2.7-1.3,8.31,8.31,0,0,0-2.59-.43,5,5,0,0,0-2.75.61,2.07,2.07,0,0,0-.91,1.84,1.23,1.23,0,0,0,.52,1.09,2.92,2.92,0,0,0,1.31.49c.52.08,1.27.15,2.25.2a.78.78,0,0,0,.22,0l.23,0h.11l.11,0a15.45,15.45,0,0,1,3.26.5,4.33,4.33,0,0,1,2.25,1.5,5,5,0,0,1,.92,3.25,5.72,5.72,0,0,1-.84,3.21,5.12,5.12,0,0,1-2.54,1.91,12.2,12.2,0,0,1-4.27.64Z" transform="translate(-1177.09 -796.45)"/><path class="cls-3" d="M1423.51,830.73h-6.39l11.76-7.07v4Zm5.37,7.08-11.76-7.08h6.39l5.37,3Z" transform="translate(-1177.09 -796.45)"/><path class="cls-3" d="M1439.6,842.5l-1.52-.41a10.59,10.59,0,0,1-2.85-1.21,12.27,12.27,0,0,1-2.49-2l2.41-2.87a8.64,8.64,0,0,0,2.8,2.25,7.45,7.45,0,0,0,3.35.76,6,6,0,0,0,3.73-1,3.47,3.47,0,0,0,1.23-2.92h0a3,3,0,0,0-.6-2,3.58,3.58,0,0,0-1.54-1.09,13.55,13.55,0,0,0-2.43-.64l-.1,0-.09,0-.19,0-.18,0a24.2,24.2,0,0,1-3.82-1,5.41,5.41,0,0,1-2.49-2,6.66,6.66,0,0,1-1-4v0a8.52,8.52,0,0,1,.93-4.19,5.85,5.85,0,0,1,2.79-2.51,11.24,11.24,0,0,1,4.65-.84,11.77,11.77,0,0,1,4.81,1,14.89,14.89,0,0,1,2.34,1.27l-2.16,2.92a11.07,11.07,0,0,0-2.54-1.29,7.6,7.6,0,0,0-2.45-.42,5.41,5.41,0,0,0-3.48.94,3.4,3.4,0,0,0-1.16,2.82v0a2.92,2.92,0,0,0,.66,2,4,4,0,0,0,1.68,1.08,25.53,25.53,0,0,0,2.77.73l.14,0,.16,0,.17,0,.16,0a16.45,16.45,0,0,1,3.48,1.1,5.49,5.49,0,0,1,2.32,2.08,7,7,0,0,1,.94,3.91v0a7.78,7.78,0,0,1-1,4,5.84,5.84,0,0,1-2.89,2.42,12.52,12.52,0,0,1-4.83.81Zm.24-28.46h3.59v4h-3.59Zm0,27.09h3.59v4.17h-3.59Z" transform="translate(-1177.09 -796.45)"/><path class="cls-3" d="M1458.26,841.75a6.07,6.07,0,0,1-2.45-2.16,8.56,8.56,0,0,1-1.25-3.4v0h3.58v0a3.26,3.26,0,0,0,1.13,2.15,3.69,3.69,0,0,0,2.42.77,3.3,3.3,0,0,0,2.67-1.13,4.91,4.91,0,0,0,.94-3.19v-2.11a4.85,4.85,0,0,0-.94-3.17,3.27,3.27,0,0,0-2.67-1.13,3.45,3.45,0,0,0-1.79.51,5,5,0,0,0-1.51,1.46h-3.27V817.1h13v3.36h-9.43v5.65a5.05,5.05,0,0,1,1.49-.83,4.89,4.89,0,0,1,1.69-.29,7.47,7.47,0,0,1,3.78.9,5.77,5.77,0,0,1,2.4,2.62,9.78,9.78,0,0,1,.81,4.17v2.11A9.51,9.51,0,0,1,1468,839a5.86,5.86,0,0,1-2.46,2.63,7.77,7.77,0,0,1-3.89.91A7.56,7.56,0,0,1,1458.26,841.75Z" transform="translate(-1177.09 -796.45)"/><path class="cls-3" d="M1474.33,817.1h3.59v25.14h-3.59Zm1.55,18.33,9.39-11.14h4.21l-13.83,15.32Zm4.24-3.55,2.3-2.35,8,12.71h-3.9Z" transform="translate(-1177.09 -796.45)"/></g></svg>